<svg width="834" height="357" viewBox="0 0 834 357" fill="none" xmlns="http://www.w3.org/2000/svg">
<path d="M256.785 356.413C256.785 356.413 171.433 346.221 188.477 275.55C205.521 204.878 284.598 203.458 314.527 155.461C344.456 107.464 385.554 34.2441 498.965 56.378C633.792 82.6923 576.202 184.682 601.556 213.79C626.91 242.896 665.844 241.152 676.638 280.018C696.803 352.639 626.014 355.067 606.68 356.416H256.785V356.413Z" fill="#D7E9F4"/>
<path d="M383.765 290.762C377.205 282.082 334.684 323.312 338.763 314.092C342.843 304.868 356.496 262.751 343.165 258.484C329.837 254.217 327.046 279.285 314.524 270.014C302.005 260.743 318.209 218.99 308.563 217.394C298.917 215.798 302.403 253.525 286.958 243.092C273.529 234.02 261.26 213.477 254.139 216.372C258.423 222.764 270.718 241.39 284.069 264.176C299.3 290.171 319.06 327.053 326.693 355.123C326.754 355.347 326.623 355.576 326.399 355.638C326.362 355.649 326.326 355.652 326.29 355.652C326.105 355.652 325.934 355.529 325.884 355.341C318.276 327.361 298.553 290.555 283.346 264.605C269.959 241.757 257.634 223.092 253.398 216.772C252.625 217.299 251.922 218.144 251.295 219.371C244.986 231.699 276.923 267.522 267.907 273.276C258.891 279.03 229.603 282.362 238.843 292.344C248.083 302.326 294.196 311.51 291.956 322.648C289.719 333.79 264.575 316.071 256.483 325.275C248.388 334.478 302.683 355.89 302.683 355.89C302.683 355.89 313.043 357.679 330.249 356.411C347.455 355.142 390.322 299.442 383.762 290.762H383.765Z" fill="#F8F8F8"/>
<path d="M516.604 316.035C508.619 312.899 494.157 338.071 489.078 347.501C490.083 342.349 491.57 336.393 493.267 330.262C496.218 327.333 533.942 289.642 524.523 285.943C516.579 282.824 502.229 307.716 497.077 317.258C502.103 300.892 507.295 286.445 507.387 286.19L506.597 285.904C506.502 286.17 500.787 302.066 495.537 319.434C496.517 314.864 498.416 299.935 487.283 280.951C474.943 259.909 490.153 319.224 492.723 329.074C490.609 336.637 488.792 343.984 487.767 349.965C487.431 350.612 487.247 350.973 487.247 350.973C487.247 350.973 492.799 333.96 479.359 311.042C465.919 288.125 479.359 353.762 479.359 353.762L487.781 352.737L488.173 352.79C488.179 352.757 488.185 352.72 488.187 352.687L494.989 351.861C494.989 351.861 526.396 319.879 516.596 316.032L516.604 316.035Z" fill="#F8F8F8"/>
<path d="M583.418 159.723C578.392 156.013 568.64 167.12 561.536 176.772C563.378 171.253 565.156 165.306 566.632 160.137C572.635 149.906 587.979 121.943 578.428 118.555C569.104 115.248 565.212 154.285 564.507 162.405C562.762 168.391 560.699 175.081 558.655 180.801C558.537 180.972 558.42 181.14 558.305 181.308C561.04 175.111 563.101 165.27 559.327 151.572C552.271 125.958 548.55 198.021 548.55 198.021C548.55 198.021 591.885 165.981 583.415 159.728L583.418 159.723Z" fill="#F8F8F8"/>
<path d="M178.134 104.509L179.364 102.87C179.585 102.575 179.524 102.161 179.227 101.943C178.93 101.725 178.513 101.787 178.293 102.082L176.842 104.017C171.16 102.035 163.917 101.722 156.474 103.56C141.562 107.241 131.386 118.164 133.79 127.904C136.195 137.643 150.285 142.575 165.197 138.894C165.807 138.743 166.439 138.569 167.119 138.369C171.543 142.676 178.519 148.913 178.594 148.977L179.655 149.927L180.352 131.53C186.457 126.506 189.269 120.176 187.88 114.55C186.769 110.05 183.163 106.58 178.138 104.508L178.134 104.509ZM179.274 130.698L179.036 130.889L178.428 147.04C176.239 145.07 171.156 140.457 167.778 137.15L167.494 136.873L167.114 136.99C166.311 137.234 165.582 137.441 164.881 137.614C150.683 141.119 137.32 136.623 135.09 127.592C132.861 118.561 142.596 108.362 156.794 104.857C163.826 103.121 170.654 103.349 176.022 105.122L158.804 128.098L143.464 118.162C143.157 117.96 142.743 118.048 142.538 118.354C142.335 118.664 142.421 119.071 142.733 119.272L159.126 129.886L177.33 105.587C182.122 107.479 185.55 110.688 186.583 114.875C187.864 120.063 185.132 125.976 179.274 130.698Z" fill="#0E2549"/>
<path d="M455.59 292.347H408.735V335.839H455.59V292.347Z" fill="#A1C5E2"/>
<path d="M312.668 119.182H548.693C552.887 119.182 556.292 122.587 556.292 126.781V292.285C556.292 296.48 552.887 299.884 548.693 299.884H312.668C308.473 299.884 305.068 296.48 305.068 292.285V126.781C305.068 122.587 308.473 119.182 312.668 119.182Z" fill="#D2EBFC"/>
<path d="M548.692 300.304H312.668C308.246 300.304 304.648 296.706 304.648 292.285V126.781C304.648 122.36 308.246 118.762 312.668 118.762H548.692C553.114 118.762 556.712 122.36 556.712 126.781V292.285C556.712 296.706 553.114 300.304 548.692 300.304ZM312.668 119.602C308.708 119.602 305.488 122.822 305.488 126.781V292.285C305.488 296.244 308.708 299.464 312.668 299.464H548.692C552.652 299.464 555.872 296.244 555.872 292.285V126.781C555.872 122.822 552.652 119.602 548.692 119.602H312.668Z" fill="#0E2549"/>
<path d="M543.277 131.538H320.21V276.471H543.277V131.538Z" fill="#F8F8F8"/>
<path d="M543.697 276.891H319.791V131.118H543.697V276.891ZM320.631 276.051H542.857V131.958H320.631V276.051Z" fill="#0E2549"/>
<path d="M480.557 335.296H383.765V356.413H480.557V335.296Z" fill="#2E6B99"/>
<path d="M510.22 142.565C510.565 141.103 509.66 139.639 508.198 139.294C506.737 138.949 505.272 139.854 504.928 141.316C504.583 142.777 505.488 144.241 506.949 144.586C508.41 144.931 509.875 144.026 510.22 142.565Z" fill="#A1C5E2"/>
<path d="M517.408 144.628C518.91 144.628 520.127 143.411 520.127 141.909C520.127 140.408 518.91 139.19 517.408 139.19C515.906 139.19 514.689 140.408 514.689 141.909C514.689 143.411 515.906 144.628 517.408 144.628Z" fill="#A1C5E2"/>
<path d="M529.946 141.909C529.946 143.41 528.728 144.628 527.228 144.628C525.727 144.628 524.509 143.41 524.509 141.909C524.509 140.408 525.727 139.19 527.228 139.19C528.728 139.19 529.946 140.408 529.946 141.909Z" fill="#A1C5E2"/>
<path d="M481.039 225.59H379.842V276.043H481.039V225.59Z" fill="#176B87"/>
<path d="M477.816 195.19H383.95L372.803 218.38V233.032H485.441V218.38L477.816 195.19Z" fill="#A1C5E2"/>
<path d="M461.677 201.154C461.677 202.101 461.291 202.963 460.666 203.587C460.042 204.212 459.18 204.598 458.23 204.598H400.738C398.84 204.598 397.292 203.05 397.292 201.151C397.292 200.205 397.678 199.343 398.302 198.715C398.927 198.091 399.786 197.705 400.738 197.705H458.23C460.126 197.705 461.677 199.256 461.677 201.151V201.154Z" fill="#0E2549"/>
<path d="M451.589 187.661L449.562 197.355L448.148 204.128H412.061L413.478 197.355L416.964 180.672L451.589 187.661Z" fill="#F8F8F8"/>
<path d="M448.486 204.548H411.543L416.639 180.177L452.087 187.331L448.486 204.545V204.548ZM412.577 203.708H447.803L451.09 187.989L417.289 181.165L412.577 203.708Z" fill="#0E2549"/>
<path d="M426.266 192.987C425.826 195.129 423.732 196.509 421.59 196.069C419.448 195.63 418.067 193.535 418.507 191.393C418.946 189.251 421.041 187.871 423.183 188.311C425.325 188.75 426.705 190.845 426.266 192.987Z" fill="#A1C5E2"/>
<path d="M416.032 204.548C415.951 204.548 415.869 204.525 415.797 204.475C415.603 204.343 415.556 204.083 415.685 203.893C416.681 202.425 418.448 201.709 420.187 202.067C421.307 202.297 422.281 202.943 422.928 203.893C423.06 204.083 423.009 204.346 422.819 204.475C422.629 204.607 422.365 204.556 422.237 204.366C421.713 203.599 420.926 203.075 420.022 202.89C418.616 202.602 417.188 203.181 416.382 204.366C416.301 204.486 416.169 204.551 416.035 204.551L416.032 204.548Z" fill="#0E2549"/>
<path d="M445.199 194.527C445.171 194.527 445.143 194.524 445.115 194.518L430.032 191.419C429.805 191.371 429.659 191.15 429.704 190.923C429.752 190.696 429.973 190.551 430.2 190.595L445.283 193.695C445.51 193.743 445.656 193.964 445.611 194.191C445.569 194.389 445.395 194.527 445.199 194.527Z" fill="#0E2549"/>
<path d="M436.284 197.836C436.256 197.836 436.228 197.833 436.2 197.828L429.018 196.352C428.791 196.305 428.646 196.083 428.691 195.857C428.738 195.63 428.959 195.484 429.186 195.529L436.368 197.005C436.595 197.052 436.741 197.273 436.696 197.5C436.654 197.699 436.48 197.836 436.284 197.836Z" fill="#0E2549"/>
<path d="M421.923 193.348L419.031 188.554C418.91 188.355 418.975 188.098 419.173 187.977C419.372 187.857 419.63 187.921 419.75 188.12L422.22 192.214L430.855 187.277C431.056 187.163 431.314 187.233 431.429 187.434C431.544 187.636 431.474 187.893 431.272 188.008L421.923 193.351V193.348Z" fill="#0E2549"/>
<path d="M446.011 242.252H411.014C406.632 242.252 403.079 245.805 403.079 250.188V252.797C403.079 257.18 406.632 260.732 411.014 260.732H446.011C450.394 260.732 453.946 257.18 453.946 252.797V250.188C453.946 245.805 450.394 242.252 446.011 242.252Z" fill="#F8F8F8"/>
<path d="M446.011 261.152H411.017C406.408 261.152 402.662 257.403 402.662 252.797V250.19C402.662 245.582 406.411 241.835 411.017 241.835H446.011C450.62 241.835 454.366 245.584 454.366 250.19V252.797C454.366 257.406 450.617 261.152 446.011 261.152ZM411.017 242.672C406.873 242.672 403.502 246.044 403.502 250.188V252.794C403.502 256.938 406.873 260.309 411.017 260.309H446.011C450.155 260.309 453.526 256.938 453.526 252.794V250.188C453.526 246.044 450.155 242.672 446.011 242.672H411.017Z" fill="#0E2549"/>
<path d="M414.01 256.107L410.054 247.144H411.294L413.4 251.999C414.175 253.791 414.48 254.595 414.651 255.087H414.676C414.816 254.665 415.262 253.626 415.827 252.26L418.076 247.144H419.285L415.267 256.107H414.01Z" fill="#0E2549"/>
<path d="M429.298 251.599C429.298 254.138 427.576 256.297 424.608 256.297C421.64 256.297 419.929 254.225 419.929 251.593C419.929 249.104 421.783 246.956 424.636 246.956C427.489 246.956 429.298 249.107 429.298 251.599ZM421.131 251.557C421.131 253.52 422.354 255.325 424.642 255.325C426.929 255.325 428.097 253.64 428.097 251.624C428.097 249.728 426.87 247.925 424.563 247.925C422.424 247.925 421.131 249.608 421.131 251.557Z" fill="#0E2549"/>
<path d="M433.484 248.121H430.029V247.144H438.079V248.121H434.627V256.107H433.484V248.121Z" fill="#0E2549"/>
<path d="M446.148 251.876H440.719V255.135H446.703L446.543 256.107H439.585V247.144H446.431V248.116H440.717V250.904H446.146V251.876H446.148Z" fill="#0E2549"/>
<path d="M431.743 294.349C428.486 294.349 425.835 291.7 425.835 288.441C425.835 285.182 428.483 282.533 431.743 282.533C435.002 282.533 437.651 285.182 437.651 288.441C437.651 291.7 435.002 294.349 431.743 294.349ZM431.743 283.373C428.948 283.373 426.675 285.647 426.675 288.441C426.675 291.235 428.948 293.509 431.743 293.509C434.537 293.509 436.811 291.235 436.811 288.441C436.811 285.647 434.537 283.373 431.743 283.373Z" fill="#0E2549"/>
<path d="M539.447 291.728C537.476 291.728 535.871 290.124 535.871 288.152C535.871 286.181 537.476 284.577 539.447 284.577C541.418 284.577 543.022 286.181 543.022 288.152C543.022 290.124 541.418 291.728 539.447 291.728ZM539.447 285.417C537.938 285.417 536.711 286.643 536.711 288.152C536.711 289.662 537.938 290.888 539.447 290.888C540.956 290.888 542.182 289.662 542.182 288.152C542.182 286.643 540.956 285.417 539.447 285.417Z" fill="#0E2549"/>
<path d="M833.318 356.597H34.968C34.5905 356.597 34.2858 356.406 34.2858 356.169C34.2858 355.932 34.5905 355.74 34.968 355.74H833.318C833.695 355.74 834 355.932 834 356.169C834 356.406 833.695 356.597 833.318 356.597Z" fill="#0E2549"/>
<path d="M459.065 340.224H548.743V356.327H458.983V340.305C458.983 340.26 459.02 340.224 459.065 340.224Z" fill="#D2EBFC"/>
<path d="M444.048 349.229L458.933 356.301C458.958 356.313 458.989 356.296 458.989 356.265V340.288C458.989 340.26 458.958 340.241 458.933 340.252L444.048 347.325C443.245 347.705 443.245 348.848 444.048 349.229Z" fill="#F8F8F8"/>
<path d="M459.065 339.804C459.009 339.804 458.802 339.849 458.754 339.871L443.869 346.944C443.351 347.19 443.027 347.7 443.027 348.277C443.027 348.853 443.349 349.363 443.869 349.609L458.567 356.749H549.166V339.807H459.068L459.065 339.804ZM458.564 355.66L450.393 351.779C450.276 351.021 450.281 345.737 450.284 344.827L458.564 340.893V355.66ZM459.409 340.644H538.349V345.202H459.409V340.644ZM459.409 346.042H538.349V350.556H459.409V346.042ZM459.409 351.396H538.349V355.909H459.409V351.396Z" fill="#0E2549"/>
<path d="M420.876 355.781L381.525 214.642L377.667 228.476H355.174L358.565 216.319C358.627 216.095 358.498 215.862 358.274 215.801C358.05 215.739 357.82 215.868 357.756 216.092L354.303 228.476H350.358C350.126 228.476 349.938 228.664 349.938 228.896C349.938 229.129 350.126 229.316 350.358 229.316H354.068L350.179 243.272H346.447C346.214 243.272 346.027 243.459 346.027 243.692C346.027 243.924 346.214 244.112 346.447 244.112H349.944L346.052 258.064H343.165C342.933 258.064 342.745 258.251 342.745 258.484C342.745 258.716 342.933 258.904 343.165 258.904H345.817L341.928 272.856H338.764C338.531 272.856 338.344 273.044 338.344 273.276C338.344 273.509 338.531 273.696 338.764 273.696H341.692L337.8 287.651H335.362C335.129 287.651 334.942 287.839 334.942 288.071C334.942 288.304 335.129 288.491 335.362 288.491H337.565L333.676 302.446H330.963C330.73 302.446 330.543 302.634 330.543 302.866C330.543 303.099 330.73 303.286 330.963 303.286H333.444L329.554 317.239H326.712C326.48 317.239 326.292 317.426 326.292 317.659C326.292 317.891 326.48 318.079 326.712 318.079H329.322L325.433 332.034H322.462C322.23 332.034 322.042 332.222 322.042 332.454C322.042 332.686 322.23 332.874 322.462 332.874H325.198L321.308 346.826H317.915C317.682 346.826 317.495 347.014 317.495 347.246C317.495 347.479 317.682 347.666 317.915 347.666H321.073L318.811 355.781C318.749 356.005 318.878 356.237 319.102 356.299C319.138 356.31 319.178 356.313 319.214 356.313C319.399 356.313 319.567 356.192 319.617 356.005L321.941 347.666H344.436L342.174 355.781C342.112 356.005 342.241 356.237 342.465 356.299C342.689 356.36 342.919 356.231 342.983 356.007L345.307 347.669H347.897C348.13 347.669 348.317 347.481 348.317 347.249C348.317 347.017 348.13 346.829 347.897 346.829H345.542L349.434 332.877H352.444C352.677 332.877 352.864 332.689 352.864 332.457C352.864 332.224 352.677 332.037 352.444 332.037H349.667L353.559 318.082H356.697C356.93 318.082 357.117 317.894 357.117 317.662C357.117 317.429 356.93 317.242 356.697 317.242H353.791L357.68 303.289H360.948C361.18 303.289 361.368 303.102 361.368 302.869C361.368 302.637 361.18 302.449 360.948 302.449H357.913L361.802 288.494H365.344C365.576 288.494 365.764 288.307 365.764 288.074C365.764 287.842 365.576 287.654 365.344 287.654H362.034L365.923 273.699H368.743C368.975 273.699 369.163 273.511 369.163 273.279C369.163 273.047 368.975 272.859 368.743 272.859H366.159L370.048 258.907H373.145C373.377 258.907 373.565 258.719 373.565 258.487C373.565 258.254 373.377 258.067 373.145 258.067H370.283L374.172 244.114H376.423C376.656 244.114 376.843 243.927 376.843 243.694C376.843 243.462 376.656 243.274 376.423 243.274H374.407L378.299 229.319H380.335C380.567 229.319 380.755 229.132 380.755 228.899C380.755 228.667 380.567 228.479 380.335 228.479H378.532L381.517 217.772L420.061 356.01C420.112 356.195 420.282 356.318 420.464 356.318C420.501 356.318 420.54 356.313 420.576 356.304C420.8 356.243 420.929 356.01 420.868 355.786L420.876 355.781ZM344.669 346.826H322.174L326.063 332.874H348.558L344.669 346.826ZM348.793 332.034H326.298L330.19 318.079H352.682L348.793 332.034ZM352.917 317.239H330.425L334.314 303.286H356.807L352.917 317.239ZM357.042 302.446H334.55L338.439 288.491H360.931L357.042 302.446ZM361.166 287.651H338.674L342.563 273.696H365.058L361.166 287.651ZM365.291 272.856H342.796L346.688 258.904H369.183L365.293 272.856H365.291ZM369.415 258.064H346.92L350.809 244.112H373.304L369.412 258.064H369.415ZM373.539 243.272H351.044L354.936 229.316H377.429L373.539 243.272Z" fill="#0E2549"/>
<path d="M363.087 162.884C363.042 163.06 362.994 163.231 362.95 163.402C360.967 170.606 357.565 172.874 355.787 172.211C355.21 171.995 354.802 171.471 354.67 170.707C354.118 167.535 358.181 160.938 358.181 160.938C358.181 160.938 365.668 152.86 363.087 162.884Z" fill="#176B87"/>
<path d="M368.737 166.194C368.603 166.966 368.16 167.47 367.536 167.619C365.856 168.019 362.877 165.83 361.135 159.378C361.107 159.269 361.077 159.16 361.049 159.051C358.694 149.898 364.991 156.469 364.991 156.469C364.991 156.469 369.239 163.298 368.735 166.196L368.737 166.194Z" fill="#176B87"/>
<path d="M367.536 167.619C365.856 168.019 362.877 165.829 361.135 159.378L362.328 159.062C362.328 159.062 362.406 164.155 367.536 167.621V167.619Z" fill="#0E2549"/>
<path d="M362.95 163.399C360.967 170.603 357.565 172.871 355.787 172.208C361.334 169.119 362.003 162.565 362.003 162.565L362.95 163.396V163.399Z" fill="#0E2549"/>
<path d="M381.617 122.654C380.987 121.229 379.926 119.843 378.241 118.745C377.919 118.535 373.335 115.111 372.965 114.923C370.087 113.467 347.211 117.871 343.319 118.051C343.017 118.065 341.457 119.882 340.766 121.943C340.348 123.18 340.189 124.51 340.74 125.594C340.914 125.938 341.577 127.069 342.261 128.223L357.409 154.4L358.867 156.923L358.341 158.499L357.607 160.689L363.244 163.839L381.816 129.516C382.438 128.268 382.827 125.389 381.62 122.654H381.617ZM362.863 145.003L361.844 148.047L361.141 145.745L355.603 126.17L362.048 121.537L369.138 127.523L362.863 145V145.003Z" fill="#2E6B99"/>
<path d="M363.479 122.746L361.905 121.786L360.357 122.754C356.384 119.91 348.39 118.851 343.067 118.207C344.965 115.662 346.967 114.391 346.967 114.391C346.967 114.391 350.554 114.178 350.856 114.167C354.748 113.991 370.09 113.47 372.965 114.926C373.335 115.113 377.916 118.538 378.24 118.748C379.926 119.845 365.148 120.766 363.479 122.746Z" fill="#1E5272"/>
<path d="M362.205 69.4091C362.205 69.4091 361.303 76.2075 360.572 76.8767C359.842 77.5459 356.412 78.7667 356.412 78.7667L365.932 87.3123L373.452 81.8103C373.452 81.8103 370.28 79.7243 370.109 78.7779C369.871 77.4675 371.07 70.9239 371.07 70.9239L362.202 69.4119L362.205 69.4091Z" fill="#F8F8F8"/>
<path d="M365.904 87.8499L355.605 78.6043L356.272 78.3663C357.568 77.9043 359.802 77.0083 360.29 76.5631C360.679 76.1543 361.37 72.5004 361.788 69.3504L362.619 69.4596C362.404 71.0892 361.636 76.4651 360.855 77.1819C360.267 77.7195 358.279 78.5119 357.212 78.9151L365.96 86.7663L372.724 81.8187C371.68 81.0963 369.857 79.7215 369.698 78.8479C369.451 77.5011 370.535 71.5204 370.658 70.8428L371.484 70.994C371.008 73.5952 370.358 77.7923 370.524 78.6995C370.608 79.1587 372.226 80.4971 373.685 81.4575L374.192 81.7907L365.906 87.8499H365.904Z" fill="#0E2549"/>
<path d="M366.262 55.9496C366.262 55.9496 361.939 55.8628 361.508 58.3912C361.015 61.2752 360.872 65.0664 360.83 67.0684C360.813 67.8579 361.379 68.5411 362.157 68.6727L370.885 70.1595C371.686 70.2967 372.459 69.8123 372.685 69.0311C373.447 66.4103 375.009 60.8496 374.839 59.9424C374.253 56.854 366.262 55.944 366.262 55.944V55.9496Z" fill="#0E2549"/>
<path d="M364.297 72.1055C366.724 72.8139 369.894 72.8727 370.896 72.1615C371.484 71.7443 372.024 69.7899 372.47 67.5303C372.484 67.4659 372.528 67.4127 372.593 67.3903C373.265 67.144 374.278 66.5448 374.444 65.4136C374.586 64.4336 373.819 64.5148 373.192 64.7304C373.08 64.7696 372.968 64.6744 372.985 64.5568C373.405 61.8128 373.657 59.3852 373.657 59.3852L362.586 57.498C362.586 57.498 362.191 59.9424 361.833 62.6976C361.816 62.8208 361.67 62.8796 361.575 62.7984C361.046 62.3616 360.287 61.9472 360.091 62.9664C359.845 64.2376 360.85 65.226 361.39 65.6012C361.446 65.6404 361.477 65.7076 361.469 65.7748C361.267 67.7264 361.169 69.4287 361.334 70.0643C361.424 70.4115 361.656 70.7251 361.992 71.0051L364.297 72.1055Z" fill="#F8F8F8"/>
<path d="M368.284 73.0799C366.934 73.0799 365.402 72.8643 364.179 72.5059C363.955 72.4415 363.829 72.2063 363.893 71.9851C363.958 71.7611 364.193 71.6351 364.414 71.6995C366.968 72.4443 369.866 72.3743 370.655 71.8171C370.804 71.7107 371.344 71.0863 372.058 67.4463C372.1 67.2391 372.248 67.0655 372.447 66.9927C372.873 66.8359 373.878 66.3655 374.026 65.3491C374.06 65.1251 374.021 65.0412 374.012 65.0356C373.982 65.0076 373.786 64.9684 373.326 65.1252C373.136 65.1924 372.926 65.1532 372.769 65.0216C372.612 64.89 372.537 64.6912 372.568 64.4896C372.884 62.426 373.108 60.5248 373.195 59.7296L362.933 57.9796C362.804 58.7944 362.516 60.6928 362.247 62.748C362.219 62.958 362.082 63.1344 361.886 63.2128C361.69 63.2884 361.468 63.2548 361.306 63.1176C360.886 62.7676 360.665 62.734 360.62 62.7508C360.609 62.7536 360.544 62.8208 360.502 63.042C360.264 64.2628 361.488 65.156 361.628 65.254C361.81 65.3799 361.908 65.5955 361.886 65.8139C361.586 68.7455 361.664 69.6667 361.74 69.9551C361.804 70.2015 361.978 70.4451 362.261 70.6803C362.44 70.8287 362.462 71.0947 362.314 71.2711C362.166 71.4503 361.9 71.4727 361.723 71.3243C361.303 70.9743 361.037 70.5851 360.928 70.1651C360.771 69.5603 360.808 68.1519 361.037 65.8616C360.234 65.2568 359.433 64.148 359.679 62.8824C359.774 62.3924 359.996 62.0816 360.34 61.9584C360.668 61.8408 361.043 61.9192 361.477 62.1964C361.816 59.6484 362.171 57.4476 362.174 57.4252L362.241 57.008L374.119 59.0324L374.077 59.4244C374.077 59.4468 373.844 61.656 373.461 64.2152C373.931 64.1172 374.298 64.176 374.553 64.386C374.83 64.6156 374.934 64.9796 374.861 65.4696C374.659 66.8359 373.478 67.4827 372.859 67.7319C372.122 71.4335 371.526 72.2259 371.142 72.5003C370.574 72.9035 369.504 73.0771 368.286 73.0771L368.284 73.0799Z" fill="#0E2549"/>
<path d="M362.309 57.7416C363.689 60.2168 371.045 63.6748 375.944 57.0416C380.844 50.4084 369.477 54.3564 365.893 54.8016C364.358 54.992 361.127 55.622 362.309 57.7416Z" fill="#0E2549"/>
<path d="M327.746 111.563C327.746 111.563 325.668 114.433 323.977 115.553C322.286 116.673 314.726 116.438 314.726 118.339C314.726 120.24 325.077 119.311 326.276 118.339C327.474 117.367 331.246 113.926 331.246 113.926L327.746 111.56V111.563Z" fill="#F8F8F8"/>
<path d="M318.814 119.856C317.237 119.856 315.837 119.711 315.081 119.35C314.443 119.045 314.308 118.633 314.308 118.339C314.308 116.841 317.01 116.463 319.869 116.063C321.479 115.836 323.142 115.603 323.747 115.203C325.357 114.136 327.387 111.345 327.407 111.317L327.645 110.986L331.923 113.879L331.528 114.237C331.374 114.377 327.734 117.695 326.539 118.667C325.788 119.274 321.955 119.856 318.811 119.856H318.814ZM327.843 112.137C327.239 112.935 325.617 114.973 324.209 115.906C323.445 116.413 321.84 116.637 319.984 116.897C318.175 117.152 315.146 117.575 315.146 118.342C315.146 118.409 315.258 118.507 315.44 118.594C317.43 119.543 325.066 118.781 326.009 118.017C326.956 117.247 329.568 114.887 330.565 113.979L327.841 112.14L327.843 112.137Z" fill="#0E2549"/>
<path d="M363.09 119.395L364.019 117.356L361.065 113.053C360.934 112.862 360.673 112.812 360.48 112.943C360.29 113.075 360.239 113.335 360.371 113.529L363.056 117.44L362.163 119.4L351.075 124.535L358.669 147.406C358.727 147.582 358.89 147.694 359.066 147.694C359.111 147.694 359.156 147.688 359.198 147.672C359.419 147.599 359.536 147.361 359.464 147.14L352.105 124.983L361.67 120.554C361.664 120.719 361.754 120.881 361.914 120.954C361.97 120.979 362.028 120.993 362.087 120.993C362.247 120.993 362.398 120.901 362.471 120.747L362.726 120.19L370.608 126.868L359.458 159.675C359.383 159.894 359.5 160.134 359.721 160.207C359.766 160.221 359.811 160.23 359.856 160.23C360.029 160.23 360.194 160.12 360.253 159.944L371.588 126.593L363.09 119.395Z" fill="#0E2549"/>
<path d="M389.497 125.554C389.497 125.554 383.891 127.033 383.264 127.271C381.811 127.822 381.001 108.701 379.87 107.178C379.285 106.391 375.415 98.5514 375.11 98.5906C374.265 98.697 374.41 115.13 373.338 115.172C366.117 115.446 347.29 114.511 346.968 114.391C346.332 114.156 349.166 96.8658 349.166 96.8658C347.959 98.3638 345.117 105.507 341.746 109.046C336.431 114.626 330.218 116.886 330.218 116.886C329.596 116.261 326.136 112.935 325.926 112.126C325.601 110.894 333.816 102.779 334.502 101.626L346.324 81.9838L355.115 77.8959C355.93 77.7671 356.753 78.0191 357.367 78.5651C363.434 83.9886 370.569 81.9615 373.164 80.9423C373.847 80.6735 374.612 80.6958 375.278 80.9982L381.503 86.0046L390.734 103.782C391.249 106.226 391.871 124.796 389.494 125.554H389.497Z" fill="#176B87"/>
<path d="M291.413 196.517C291.18 196.517 290.993 196.327 290.996 196.095L291.026 189.016C291.026 188.784 291.214 188.599 291.446 188.599C291.679 188.599 291.866 188.789 291.864 189.022L291.833 196.1C291.833 196.333 291.645 196.517 291.413 196.517Z" fill="#0E2549"/>
<path d="M449.895 105.423C449.825 105.423 449.755 105.406 449.688 105.369C449.486 105.255 449.413 105 449.528 104.798L454.882 95.2978C454.997 95.0962 455.251 95.0234 455.453 95.1382C455.655 95.253 455.727 95.5078 455.613 95.7094L450.259 105.21C450.181 105.347 450.041 105.423 449.892 105.423H449.895Z" fill="#0E2549"/>
<path d="M443.214 106.988C443.054 106.988 442.9 106.895 442.83 106.741L439.924 100.287C439.829 100.075 439.924 99.8282 440.134 99.733C440.344 99.6378 440.593 99.733 440.688 99.943L443.595 106.397C443.69 106.61 443.595 106.856 443.385 106.951C443.329 106.977 443.27 106.988 443.214 106.988Z" fill="#0E2549"/>
<path d="M285.09 200.331C285.004 200.331 284.917 200.306 284.841 200.25L276.058 193.787C275.87 193.65 275.831 193.387 275.968 193.199C276.105 193.012 276.369 192.973 276.556 193.11L285.34 199.572C285.527 199.709 285.566 199.973 285.429 200.16C285.348 200.272 285.219 200.331 285.09 200.331Z" fill="#0E2549"/>
<path d="M361.757 147.929L358.781 156.808L357.319 154.285L361.051 145.628L361.757 147.929Z" fill="#1E5272"/>
<path d="M358.458 169.313C358.4 169.313 358.341 169.302 358.282 169.274L355.608 168.044C355.398 167.946 355.306 167.697 355.401 167.487C355.499 167.277 355.748 167.185 355.958 167.28L358.632 168.509C358.842 168.607 358.934 168.856 358.839 169.066C358.769 169.22 358.615 169.31 358.458 169.31V169.313Z" fill="#0E2549"/>
<path d="M359.122 167.397C359.063 167.397 359.005 167.386 358.946 167.358L356.272 166.129C356.062 166.031 355.969 165.782 356.065 165.572C356.163 165.362 356.412 165.269 356.622 165.365L359.296 166.594C359.506 166.692 359.598 166.941 359.503 167.151C359.433 167.305 359.279 167.395 359.122 167.395V167.397Z" fill="#0E2549"/>
<path d="M359.797 165.482C359.738 165.482 359.679 165.471 359.621 165.443L356.947 164.214C356.737 164.116 356.644 163.867 356.739 163.657C356.837 163.447 357.087 163.354 357.297 163.45L359.971 164.679C360.181 164.777 360.273 165.026 360.178 165.236C360.108 165.39 359.954 165.48 359.797 165.48V165.482Z" fill="#0E2549"/>
<path d="M365.106 164.947C364.946 164.947 364.795 164.858 364.725 164.704C364.627 164.494 364.719 164.245 364.932 164.147L367.606 162.917C367.816 162.819 368.065 162.912 368.163 163.125C368.261 163.335 368.169 163.584 367.956 163.682L365.282 164.911C365.226 164.936 365.165 164.95 365.106 164.95V164.947Z" fill="#0E2549"/>
<path d="M364.395 163.122C364.235 163.122 364.084 163.032 364.014 162.878C363.916 162.668 364.008 162.419 364.221 162.321L366.895 161.092C367.105 160.994 367.354 161.086 367.452 161.299C367.55 161.509 367.458 161.758 367.245 161.856L364.571 163.085C364.515 163.111 364.453 163.125 364.395 163.125V163.122Z" fill="#0E2549"/>
<path d="M370.076 65.338C370.05 65.338 370.025 65.338 370 65.3324C369.77 65.2904 369.619 65.072 369.661 64.8452L369.709 64.5848C369.751 64.3552 369.969 64.2068 370.196 64.246C370.426 64.288 370.577 64.5064 370.535 64.7332L370.487 64.9936C370.451 65.198 370.274 65.338 370.076 65.338Z" fill="#0E2549"/>
<path d="M364.943 64.4644C364.921 64.4644 364.899 64.4644 364.876 64.4588C364.647 64.4224 364.493 64.2068 364.529 63.9772L364.571 63.7168C364.607 63.4872 364.823 63.3304 365.053 63.3696C365.282 63.406 365.436 63.6216 365.4 63.8512L365.358 64.1116C365.324 64.3188 365.145 64.4644 364.943 64.4644Z" fill="#0E2549"/>
<path d="M365.912 63.14C365.853 63.14 365.792 63.1288 365.736 63.1008C365.724 63.0952 364.971 62.762 364.193 63.0644C363.977 63.1484 363.734 63.0392 363.65 62.8236C363.566 62.608 363.675 62.3644 363.89 62.2804C365.013 61.8464 366.049 62.3196 366.091 62.3392C366.301 62.4372 366.391 62.6892 366.293 62.8992C366.22 63.0504 366.069 63.14 365.912 63.14Z" fill="#0E2549"/>
<path d="M371.364 64.3412C371.268 64.3412 371.17 64.3076 371.092 64.2404C370.454 63.6972 369.633 63.7644 369.622 63.7644C369.392 63.784 369.188 63.616 369.166 63.3864C369.143 63.1568 369.311 62.9524 369.541 62.9272C369.589 62.9216 370.72 62.818 371.638 63.5992C371.814 63.7504 371.837 64.0136 371.686 64.19C371.602 64.288 371.484 64.3384 371.366 64.3384L371.364 64.3412Z" fill="#0E2549"/>
<path d="M366.993 67.648H366.957C366.724 67.648 366.537 67.4576 366.539 67.228C366.539 66.9956 366.727 66.808 366.959 66.808C366.965 66.808 366.971 66.808 366.979 66.808C367.293 66.808 367.629 66.7828 367.847 66.7464C367.701 66.4804 367.477 66.0156 367.293 65.0972C367.248 64.8704 367.393 64.6492 367.623 64.6016C367.85 64.554 368.071 64.7024 368.119 64.932C368.303 65.8504 368.511 66.2144 368.637 66.4328C368.737 66.6064 368.861 66.8248 368.754 67.1132C368.695 67.2728 368.558 67.648 366.996 67.648H366.993Z" fill="#0E2549"/>
<path d="M368.832 68.4432C368.958 68.7204 367.953 69.426 366.965 69.2104C365.349 68.8604 365.033 67.6592 365.414 67.8048C365.562 67.8608 366.097 68.2976 367.068 68.488C368.116 68.6924 368.748 68.2556 368.832 68.4404V68.4432Z" fill="#0E2549"/>
<path d="M405.47 126.499L372.351 138.849L388.953 183.372L422.073 171.023L405.47 126.499Z" fill="#F8F8F8"/>
<path d="M388.704 183.92L371.809 138.608L405.714 125.966L422.609 171.278L388.704 183.92ZM372.89 139.101L389.2 182.839L421.531 170.783L405.221 127.044L372.89 139.101Z" fill="#0E2549"/>
<path d="M386.767 144.356C387.531 146.406 386.49 148.685 384.44 149.45C382.39 150.214 380.111 149.172 379.347 147.123C378.582 145.073 379.624 142.794 381.674 142.03C383.723 141.265 386.002 142.307 386.767 144.356Z" fill="#F8F8F8"/>
<path d="M383.059 150.122C381.281 150.122 379.607 149.032 378.952 147.271C378.109 145.009 379.263 142.48 381.525 141.638C382.62 141.229 383.81 141.271 384.874 141.758C385.938 142.245 386.75 143.116 387.159 144.211C387.567 145.306 387.525 146.496 387.038 147.56C386.551 148.624 385.68 149.436 384.585 149.844C384.084 150.032 383.566 150.122 383.059 150.122ZM383.057 142.2C382.639 142.2 382.222 142.276 381.819 142.424C379.991 143.108 379.058 145.149 379.739 146.977C380.422 148.806 382.463 149.738 384.291 149.058C385.176 148.727 385.882 148.072 386.274 147.212C386.666 146.353 386.702 145.39 386.372 144.505C386.041 143.62 385.386 142.914 384.527 142.522C384.059 142.307 383.558 142.2 383.057 142.2Z" fill="#0E2549"/>
<path d="M391.966 158.306C392.731 160.356 391.689 162.635 389.639 163.399C387.59 164.164 385.311 163.122 384.546 161.072C383.782 159.023 384.823 156.744 386.873 155.979C388.923 155.215 391.202 156.256 391.966 158.306Z" fill="#A1C5E2"/>
<path d="M396.989 171.774C397.754 173.823 396.712 176.103 394.663 176.867C392.613 177.631 390.334 176.59 389.569 174.54C388.805 172.491 389.847 170.211 391.896 169.447C393.946 168.683 396.225 169.724 396.989 171.774Z" fill="#F8F8F8"/>
<path d="M393.282 177.536C391.504 177.536 389.83 176.447 389.175 174.686C388.332 172.423 389.486 169.895 391.748 169.052C394.01 168.207 396.539 169.363 397.382 171.626C398.224 173.888 397.071 176.416 394.808 177.259C394.307 177.447 393.789 177.536 393.282 177.536ZM393.274 169.615C392.865 169.615 392.448 169.688 392.042 169.839C390.214 170.522 389.281 172.564 389.962 174.392C390.645 176.22 392.686 177.153 394.514 176.472C396.343 175.789 397.275 173.748 396.595 171.92C396.063 170.497 394.71 169.615 393.274 169.615Z" fill="#0E2549"/>
<path d="M388.979 141.055C388.808 141.055 388.648 140.952 388.584 140.781C388.503 140.562 388.612 140.322 388.83 140.24L403.259 134.859C403.477 134.778 403.718 134.887 403.799 135.105C403.88 135.324 403.771 135.564 403.553 135.646L389.124 141.027C389.077 141.044 389.026 141.055 388.979 141.055Z" fill="#0E2549"/>
<path d="M390.74 145.773C390.569 145.773 390.409 145.67 390.345 145.499C390.264 145.281 390.373 145.04 390.591 144.959L397.463 142.397C397.678 142.315 397.922 142.427 398.003 142.643C398.084 142.861 397.975 143.102 397.757 143.183L390.885 145.745C390.838 145.762 390.787 145.773 390.74 145.773Z" fill="#0E2549"/>
<path d="M393.445 154.078C393.274 154.078 393.114 153.974 393.05 153.804C392.969 153.585 393.078 153.344 393.296 153.263L407.725 147.882C407.94 147.8 408.184 147.912 408.265 148.128C408.346 148.346 408.237 148.587 408.019 148.668L393.59 154.05C393.543 154.067 393.492 154.078 393.445 154.078Z" fill="#0E2549"/>
<path d="M395.203 158.796C395.032 158.796 394.873 158.692 394.808 158.522C394.727 158.303 394.836 158.062 395.055 157.981L401.926 155.419C402.142 155.338 402.385 155.447 402.466 155.666C402.548 155.884 402.438 156.125 402.22 156.206L395.349 158.768C395.301 158.785 395.251 158.796 395.203 158.796Z" fill="#0E2549"/>
<path d="M399.451 169.136C399.28 169.136 399.12 169.033 399.056 168.862C398.975 168.644 399.084 168.403 399.302 168.322L413.731 162.94C413.946 162.859 414.19 162.968 414.271 163.186C414.352 163.405 414.243 163.646 414.025 163.727L399.596 169.108C399.549 169.125 399.498 169.136 399.451 169.136Z" fill="#0E2549"/>
<path d="M401.209 173.854C401.038 173.854 400.879 173.751 400.814 173.58C400.733 173.362 400.842 173.121 401.061 173.04L407.932 170.478C408.15 170.396 408.391 170.508 408.472 170.724C408.553 170.942 408.444 171.183 408.226 171.264L401.355 173.826C401.307 173.843 401.257 173.854 401.209 173.854Z" fill="#0E2549"/>
<path d="M388.208 160.907L383.213 158.379C383.006 158.275 382.922 158.02 383.028 157.813C383.132 157.606 383.387 157.522 383.594 157.628L387.858 159.787L392.557 151.02C392.666 150.816 392.921 150.738 393.125 150.85C393.33 150.959 393.405 151.214 393.296 151.418L388.211 160.907H388.208Z" fill="#0E2549"/>
<path d="M385.145 133.495C385.308 134.713 387.962 137.933 388.978 137.947C389.998 137.961 391.958 133.207 391.63 132.378C390.846 130.39 390.779 130.27 387.769 125.459C387.685 125.325 385.212 125.723 384.689 125.79C383.868 125.896 384.146 126.91 384.339 128.713C384.518 130.387 385.033 132.672 385.142 133.493L385.145 133.495Z" fill="#F8F8F8"/>
<path d="M388.984 138.367H388.973C387.643 138.35 384.896 134.803 384.728 133.551C384.689 133.263 384.594 132.762 384.485 132.182C384.286 131.138 384.037 129.836 383.922 128.761C383.891 128.481 383.86 128.223 383.829 127.982C383.661 126.607 383.527 125.518 384.636 125.378C384.739 125.364 384.919 125.339 385.14 125.305C387.836 124.911 387.943 124.95 388.127 125.238C391.16 130.082 391.233 130.214 392.025 132.224C392.361 133.075 391.16 136.071 390.247 137.393C389.788 138.056 389.387 138.364 388.987 138.364L388.984 138.367ZM387.52 125.854C387.055 125.874 385.778 126.059 385.26 126.134C385.033 126.168 384.849 126.193 384.742 126.207C384.499 126.238 384.507 126.61 384.664 127.876C384.695 128.119 384.725 128.385 384.756 128.668C384.868 129.71 385.112 130.992 385.308 132.023C385.42 132.613 385.518 133.126 385.56 133.437C385.714 134.593 388.301 137.516 388.984 137.524C389.049 137.508 389.351 137.292 389.819 136.497C390.712 134.982 391.356 132.916 391.238 132.527C390.477 130.595 390.432 130.508 387.52 125.851V125.854Z" fill="#0E2549"/>
<path d="M388.774 123.147L389.2 125.633L383.342 127.24L382.645 124.471L388.774 123.147Z" fill="#176B87"/>
<path d="M76.6916 315.483L72.234 354.017L66.9085 351.264L64.3605 316.015L76.6916 315.483Z" fill="#F8F8F8"/>
<path d="M72.5813 354.669L66.5054 351.527L63.9098 315.615L77.1649 315.041L72.5813 354.666V354.669ZM67.309 350.998L71.887 353.364L76.2185 315.923L64.8114 316.416L67.309 350.995V350.998Z" fill="#0E2549"/>
<path d="M72.9117 350.839C72.9117 350.839 81.5693 353.616 81.8605 355.884L66.3206 355.837L66.3374 350.819L72.9117 350.839Z" fill="#176B87"/>
<path d="M42.8259 309.55L5.33404 305.269L4.54724 299.324L36.7975 298.683L42.8259 309.55Z" fill="#F8F8F8"/>
<path d="M43.5903 310.06L4.96449 305.647L4.07129 298.913L37.0439 298.26L43.5903 310.062V310.06ZM5.70928 304.888L42.0643 309.04L36.5539 299.109L5.02609 299.733L5.70928 304.888Z" fill="#0E2549"/>
<path d="M5.77361 305.165C5.77361 305.165 3.42442 313.949 1.17323 314.349L0.462036 298.826L5.47401 298.596L5.77641 305.162L5.77361 305.165Z" fill="#176B87"/>
<path d="M64.7889 285.378C64.7889 285.378 48.6834 308.167 45.5306 310.715C39.6422 315.478 9.81958 307.573 9.81958 307.573L10.5336 297.146L38.6034 297.023C38.6034 297.023 46.6954 282.345 47.947 274.511C49.1986 266.677 59.1105 260.108 59.1105 260.108L74.4881 277.725C74.4881 277.725 77.8648 306.271 77.9432 317.547L75.9917 347.061H64.8113L62.9997 317.914L58.6541 288.648L64.7861 285.378H64.7889Z" fill="#A1C5E2"/>
<path d="M87.5051 234.076C87.5051 234.076 84.6183 240.687 84.8815 241.676C85.1475 242.664 87.6367 245.918 87.6367 245.918L75.5016 259.091L64.3436 253.553L68.118 241.407C68.118 241.407 75.048 239.116 75.706 238.355C76.6132 237.299 79.1108 230.758 79.1108 230.758L87.5051 234.079V234.076Z" fill="#F8F8F8"/>
<path d="M75.597 259.607L63.837 253.769L67.7794 241.076L67.9838 241.009C71.3298 239.903 75.0118 238.506 75.3842 238.08C76.0898 237.26 78.0274 232.41 78.7162 230.61C78.7974 230.394 79.041 230.285 79.2594 230.366C79.475 230.45 79.5842 230.691 79.503 230.91C79.2454 231.587 76.9522 237.548 76.0254 238.629C75.3702 239.388 70.3106 241.124 68.457 241.74L64.8534 253.337L75.4094 258.579L87.0937 245.895C86.4525 245.044 84.7193 242.684 84.4813 241.788C84.2013 240.738 86.4329 235.493 87.1245 233.911C87.2169 233.698 87.4633 233.6 87.6789 233.696C87.8917 233.788 87.9897 234.037 87.8945 234.25C86.5505 237.33 85.1729 241.004 85.2933 241.575C85.4697 242.236 87.0321 244.436 87.9757 245.668L88.1913 245.948L75.6026 259.615L75.597 259.607Z" fill="#0E2549"/>
<path d="M61.5494 246.808C58.6262 246.22 53.2278 244.434 50.173 245.047C48.857 245.313 38.2227 257.999 38.4075 258.803C38.5895 259.607 39.2643 264.033 38.3935 262.877C37.7831 262.065 37.2371 261.068 36.9655 260.545C36.8983 260.413 36.7079 260.43 36.6631 260.57C36.2151 261.953 34.0003 265.425 32.8439 265.825C31.3067 266.357 31.5923 259.307 34.6471 256.44C35.6831 255.465 41.1347 235.807 48.0926 234.933C55.0506 234.06 67.2753 235.611 67.2753 235.611C67.2753 235.611 65.5421 247.609 61.5494 246.805V246.808Z" fill="#F8F8F8"/>
<path d="M32.6845 266.276C32.3765 266.276 32.0937 266.103 31.8977 265.781C31.0157 264.319 31.6289 258.702 34.3589 256.137C34.5549 255.922 35.1512 254.373 35.7252 252.873C38.094 246.701 42.504 235.213 48.0396 234.519C54.9696 233.651 67.2055 235.18 67.3287 235.196L67.7515 235.25L67.6899 235.672C67.6367 236.039 66.3599 244.669 63.3751 246.774C62.7703 247.2 62.1291 247.351 61.4655 247.217C60.7487 247.071 59.8779 246.856 58.9567 246.626C56.0699 245.906 52.4776 245.01 50.2572 245.458C49.1232 245.833 39.3428 257.243 38.8332 258.783C38.9228 259.206 39.0796 260.169 39.172 261.077C39.3568 262.855 39.2 263.277 38.85 263.443C38.696 263.515 38.388 263.569 38.0576 263.132C37.5872 262.51 37.1588 261.782 36.8536 261.231C36.12 262.883 34.174 265.814 32.9785 266.226C32.8777 266.259 32.7769 266.276 32.6817 266.276H32.6845ZM53.2308 235.09C51.4024 235.09 49.6468 235.163 48.146 235.35C43.1088 235.983 38.654 247.592 36.512 253.169C35.6188 255.499 35.2436 256.457 34.9357 256.745C32.9169 258.641 32.1077 262.628 32.4129 264.655C32.4997 265.223 32.6481 265.414 32.6957 265.436C33.6701 265.095 35.8232 261.802 36.2656 260.441C36.3384 260.214 36.5372 260.057 36.7724 260.038C37.0076 260.018 37.2316 260.141 37.3408 260.351C37.5564 260.769 37.954 261.497 38.4132 262.177C38.3852 261.228 38.1472 259.539 38.0016 258.898C37.954 258.694 38.0128 258.456 38.444 257.784C40.0428 255.314 48.6416 244.926 50.0948 244.635C52.5028 244.151 56.196 245.072 59.1639 245.811C60.0767 246.038 60.9363 246.254 61.6363 246.394C62.0675 246.48 62.4819 246.379 62.8963 246.088C65.2399 244.434 66.5027 237.736 66.7967 235.975C65.1167 235.779 58.8335 235.087 53.2336 235.087L53.2308 235.09Z" fill="#0E2549"/>
<path d="M90.3276 219.161C91.7108 219.886 95.0932 221.602 94.0712 224.187C92.9064 227.132 90.91 230.725 89.8264 232.601C89.398 233.343 88.4936 233.656 87.6984 233.343L78.8028 229.826C77.988 229.504 77.5456 228.622 77.7724 227.774C78.5396 224.92 80.2168 218.895 80.886 218.153C83.1596 215.622 88.1352 218.016 90.3248 219.164L90.3276 219.161Z" fill="#0E2549"/>
<path d="M78.73 232.021C78.4472 231.332 79.0352 229.283 79.8724 227.009C79.8976 226.945 79.8836 226.872 79.8444 226.816C79.3992 226.236 78.8476 225.158 79.3124 224.05C79.7156 223.089 80.3344 223.571 80.7628 224.1C80.8384 224.195 80.9868 224.167 81.0344 224.052C82.1516 221.353 83.2436 219.032 83.2436 219.032L93.8135 223.212C93.8135 223.212 92.8363 225.626 91.6603 228.303C91.6071 228.423 88.6028 234.726 88.1156 235.21C87.8524 235.476 87.48 235.636 87.0404 235.712C87.0404 235.712 86.1416 235.997 82.3 234.48L78.7328 232.024L78.73 232.021Z" fill="#F8F8F8"/>
<path d="M86.7967 236.151C86.2255 236.151 84.9123 235.964 82.1432 234.869C81.9276 234.785 81.8212 234.538 81.908 234.323C81.992 234.107 82.2384 234.001 82.454 234.088C85.9623 235.474 86.8975 235.311 86.9339 235.303L86.9619 235.294H86.9675C87.3399 235.233 87.6255 235.104 87.8159 234.914C88.2415 234.454 91.0667 228.586 91.2739 228.132C92.1587 226.122 92.9371 224.24 93.2619 223.448L83.4563 219.57C83.1091 220.323 82.2692 222.168 81.4208 224.215C81.3424 224.405 81.166 224.542 80.9616 224.573C80.76 224.604 80.5612 224.526 80.4324 224.366C80.1272 223.985 79.9396 223.918 79.8948 223.924C79.878 223.924 79.794 223.985 79.696 224.218C79.2704 225.226 79.8864 226.194 80.172 226.564C80.3036 226.735 80.3372 226.956 80.2616 227.158C78.912 230.831 79.0436 231.691 79.1136 231.867C79.2004 232.083 79.0996 232.326 78.884 232.416C78.6684 232.503 78.4248 232.402 78.3352 232.186C78.1504 231.738 78.0664 230.711 79.43 226.981C79.0352 226.435 78.3576 225.226 78.9176 223.896C79.1192 223.417 79.4076 223.148 79.7744 223.098C80.1048 223.05 80.4464 223.196 80.7936 223.529C81.8464 221.012 82.8431 218.884 82.8543 218.864L83.0224 218.506L94.3539 222.986L94.1943 223.378C94.1831 223.403 93.2003 225.828 92.0355 228.476C92.0075 228.538 88.9751 234.942 88.4039 235.513C88.0903 235.826 87.6591 236.034 87.1187 236.126C87.0599 236.14 86.9563 236.154 86.7911 236.154L86.7967 236.151Z" fill="#0E2549"/>
<path d="M84.5037 226.942C84.4449 226.942 84.3861 226.931 84.3301 226.906C84.1201 226.81 84.0249 226.561 84.1201 226.348L84.2181 226.136C84.3133 225.926 84.5625 225.833 84.7753 225.926C84.9853 226.021 85.0805 226.27 84.9853 226.483L84.8873 226.696C84.8173 226.85 84.6633 226.942 84.5037 226.942Z" fill="#0E2549"/>
<path d="M89.0535 228.728C89.0003 228.728 88.9471 228.717 88.8967 228.698C88.6811 228.611 88.5775 228.364 88.6643 228.152L88.7679 227.894C88.8547 227.678 89.1011 227.575 89.3139 227.662C89.5295 227.748 89.6331 227.995 89.5463 228.208L89.4427 228.465C89.3755 228.628 89.2187 228.728 89.0535 228.728Z" fill="#0E2549"/>
<path d="M85.4667 225.408C85.3519 225.408 85.2371 225.36 85.1559 225.27C85.1559 225.27 84.4139 224.47 83.7139 224.783C83.5011 224.878 83.2547 224.783 83.1595 224.573C83.0643 224.36 83.1595 224.114 83.3695 224.019C84.6323 223.45 85.7355 224.657 85.7803 224.708C85.9343 224.881 85.9203 225.144 85.7467 225.301C85.6655 225.374 85.5675 225.408 85.4667 225.408Z" fill="#0E2549"/>
<path d="M85.436 217.965C85.436 217.965 80.9868 214.79 79.8696 221.944C79.2312 226.035 79.3544 220.485 84.6828 219.404C85.2344 219.292 85.436 217.965 85.436 217.965Z" fill="#0E2549"/>
<path d="M2.05799 314.876L0.755995 314.934L0 298.442L1.48679 298.375L2.05799 314.876Z" fill="#0E2549"/>
<path d="M65.839 354.887L65.8362 356.276L82.3449 356.327L82.3505 354.837L65.839 354.887Z" fill="#0E2549"/>
<path d="M1.37753 302.396C1.15353 302.396 0.968729 302.22 0.957529 301.996C0.946329 301.763 1.12553 301.567 1.35792 301.556L4.36511 301.419C4.60031 301.408 4.79351 301.587 4.80471 301.819C4.81591 302.052 4.63671 302.248 4.40431 302.259L1.39712 302.396C1.39712 302.396 1.38313 302.396 1.37753 302.396Z" fill="#0E2549"/>
<path d="M69.5125 355.492C69.2801 355.492 69.0925 355.302 69.0925 355.072L69.1009 352.062C69.1009 351.83 69.2885 351.642 69.5209 351.642C69.7533 351.642 69.9409 351.833 69.9409 352.062L69.9325 355.072C69.9325 355.305 69.7449 355.492 69.5125 355.492Z" fill="#0E2549"/>
<path d="M86.7603 230.714C86.5615 230.714 86.3795 230.691 86.2591 230.672C86.0295 230.632 85.8755 230.417 85.9147 230.187C85.9539 229.958 86.1695 229.804 86.3991 229.843C86.6567 229.885 86.9703 229.879 87.0767 229.832C87.1551 229.7 87.1607 229.622 87.1663 228.507C87.1663 228.233 87.1691 227.9 87.1719 227.494C87.1775 227.289 87.2251 226.292 87.5443 225.797C87.6339 225.657 87.8243 225.486 88.2163 225.472C88.9918 225.45 90.4114 226.043 91.0218 226.836C91.1646 227.02 91.1282 227.284 90.9462 227.424C90.7614 227.566 90.4982 227.53 90.3582 227.348C89.8431 226.679 88.5719 226.256 88.2191 226.312C88.0959 226.572 88.0231 227.163 88.0119 227.51C88.0091 227.905 88.0063 228.236 88.0063 228.51C88.0007 229.804 87.9979 229.941 87.7711 230.305C87.5667 230.632 87.1355 230.714 86.7631 230.714H86.7603Z" fill="#0E2549"/>
<path d="M96.4231 217.649C95.0147 216.518 93.9759 217.691 92.6291 218.046C91.2823 218.399 91.3691 217.058 90.0979 215.776C88.8268 214.49 88.0708 215.893 86.4552 216.372C84.8396 216.851 84.8536 216.215 83.3892 215.84C82.3448 215.574 81.95 216.523 81.8072 217.094C81.4824 217.159 81.1408 217.279 80.858 217.503C79.5392 218.556 81.3172 219.315 79.8752 221.499C79.1752 222.56 81.1576 224.59 81.25 223.534C81.3424 222.479 82.0592 221.801 82.622 221.194C82.6948 221.115 82.7676 221.023 82.8404 220.922C83.2884 220.874 83.742 220.827 84.0808 220.858C85.0328 220.944 85.8392 221.58 86.9956 222.49C88.152 223.4 89.1012 222.977 90.2071 222.58C91.3131 222.182 92.4975 222.84 92.7663 223.557C92.7887 223.616 92.8363 223.669 92.9035 223.716C92.8391 223.977 92.8167 224.204 92.8531 224.36C93.0267 225.139 92.6655 225.422 91.9375 227.071C91.2067 228.72 92.7047 227.664 92.9091 227.614C93.1135 227.564 93.7547 226.78 93.9171 225.632C94.0795 224.486 94.6899 224.794 95.1071 223.672C95.2331 223.336 95.2555 222.972 95.2275 222.63C95.2639 222.314 95.2779 222.008 95.4823 221.79C95.9079 221.334 96.9327 221.689 97.8399 220.611C98.7499 219.53 97.8343 218.783 96.4259 217.649H96.4231Z" fill="#0E2549"/>
<path d="M86.7213 232.024C86.7969 232.245 86.4217 232.886 85.8309 232.587C84.3161 231.825 83.3753 230.098 83.7113 230.344C83.8429 230.442 84.7333 231.106 85.3605 231.47C86.2117 231.962 86.6373 231.772 86.7213 232.024Z" fill="#0E2549"/>
<path d="M66.5053 285.131L68.776 280.243C68.874 280.033 68.7817 279.783 68.5717 279.685C68.3617 279.587 68.1124 279.68 68.0144 279.89L65.9089 284.42L63.4701 285.064L58.9145 293.159C58.7997 293.36 58.8725 293.618 59.0741 293.73C59.1385 293.766 59.2113 293.783 59.2785 293.783C59.4241 293.783 59.5669 293.705 59.6453 293.57L63.0025 287.604L65.9005 316.046L67.0597 345.062C67.0681 345.286 67.2557 345.465 67.4796 345.465C67.4852 345.465 67.4908 345.465 67.4964 345.465C67.7288 345.457 67.908 345.261 67.8996 345.031L66.7405 315.99L63.7193 286.335L64.0273 285.787L66.5053 285.131Z" fill="#0E2549"/>
<path d="M59.6788 275.676C59.606 275.455 59.3708 275.334 59.1496 275.407L52.6396 277.513C52.4184 277.583 52.298 277.821 52.368 278.042C52.4268 278.218 52.5892 278.333 52.7684 278.333C52.8104 278.333 52.8552 278.327 52.8972 278.313L55.2268 277.56L41.4341 301.354L12.8294 300.632C12.597 300.624 12.4038 300.808 12.3982 301.041C12.3926 301.273 12.5746 301.466 12.807 301.472L41.6609 302.2L41.9101 302.206L56.4224 277.174L59.4072 276.208C59.6284 276.138 59.7488 275.9 59.6788 275.679V275.676Z" fill="#0E2549"/>
<path d="M120.117 251.531C119.702 251.397 119.12 251.489 117.403 251.823C115.485 252.195 112.151 252.867 106.047 253.855C96.6836 255.373 87.8048 240.631 86.3292 241.438C78.6601 245.626 76.4593 237.767 75.9917 236.524C74.7009 233.094 50.243 232.34 45.1666 234.412C40.023 236.51 34.2803 252.836 34.2803 252.836L40.9022 256.286L50.4754 247.379L55.8346 249.199L47.4122 269.899L76.8961 281.36C76.8961 281.36 81.1072 270.294 81.936 268.149C81.936 268.149 84.3104 264.224 86.556 259.786C90.9856 262.824 98.1256 265.629 102.883 264.672C116.577 261.919 119.781 259.663 120.691 258.862C120.845 258.727 120.119 251.529 120.119 251.529L120.117 251.531Z" fill="#176B87"/>
<path d="M154.379 211.559L120.863 214.833L125.265 259.892L158.781 256.617L154.379 211.559Z" fill="#F8F8F8"/>
<path d="M124.868 260.363L120.388 214.468L120.806 214.426L154.739 211.114L159.219 257.008L158.801 257.05L124.868 260.363ZM121.304 215.224L125.621 259.444L158.3 256.255L153.983 212.035L121.304 215.224Z" fill="#0E2549"/>
<path d="M129.018 227.998C126.887 227.998 125.059 226.376 124.849 224.212C124.74 223.098 125.073 222.008 125.784 221.143C126.495 220.278 127.5 219.743 128.615 219.634C130.913 219.41 132.971 221.098 133.195 223.4C133.419 225.702 131.731 227.757 129.429 227.981C129.292 227.995 129.155 228 129.018 228V227.998ZM129.023 220.452C128.914 220.452 128.805 220.457 128.696 220.468C127.805 220.555 127.002 220.984 126.431 221.675C125.862 222.367 125.596 223.238 125.683 224.131C125.77 225.021 126.198 225.825 126.89 226.396C127.581 226.964 128.455 227.23 129.345 227.144C131.185 226.964 132.535 225.321 132.355 223.481C132.187 221.751 130.723 220.454 129.021 220.454L129.023 220.452Z" fill="#0E2549"/>
<path d="M134.153 237.554C134.355 239.629 132.84 241.474 130.765 241.676C128.69 241.877 126.845 240.362 126.643 238.288C126.442 236.213 127.957 234.368 130.031 234.166C132.106 233.964 133.951 235.482 134.153 237.554Z" fill="#A1C5E2"/>
<path d="M131.728 255.74C129.597 255.74 127.769 254.116 127.559 251.954C127.45 250.84 127.783 249.751 128.494 248.885C129.205 248.02 130.211 247.486 131.325 247.376C133.624 247.152 135.682 248.841 135.906 251.142C136.13 253.444 134.441 255.499 132.14 255.723C132.003 255.737 131.865 255.743 131.728 255.743V255.74ZM131.734 248.194C131.625 248.194 131.515 248.2 131.406 248.211C130.516 248.298 129.712 248.726 129.141 249.417C128.573 250.109 128.307 250.98 128.393 251.873C128.573 253.713 130.213 255.068 132.056 254.883C133.895 254.704 135.245 253.06 135.066 251.221C134.898 249.49 133.433 248.194 131.731 248.194H131.734Z" fill="#0E2549"/>
<path d="M135.724 220.972C135.511 220.972 135.326 220.81 135.306 220.594C135.284 220.365 135.452 220.158 135.684 220.135L150.286 218.71C150.516 218.688 150.723 218.856 150.746 219.088C150.768 219.318 150.6 219.525 150.368 219.547L135.766 220.972C135.766 220.972 135.738 220.972 135.724 220.972Z" fill="#0E2549"/>
<path d="M136.189 225.746C135.976 225.746 135.794 225.584 135.771 225.368C135.749 225.139 135.917 224.932 136.149 224.909L143.102 224.232C143.334 224.206 143.539 224.377 143.561 224.61C143.583 224.839 143.415 225.046 143.183 225.069L136.231 225.746C136.231 225.746 136.203 225.746 136.189 225.746Z" fill="#0E2549"/>
<path d="M136.651 234.057C136.438 234.057 136.256 233.894 136.233 233.679C136.211 233.449 136.379 233.242 136.611 233.22L151.213 231.794C151.443 231.769 151.65 231.94 151.673 232.172C151.695 232.402 151.527 232.609 151.295 232.632L136.693 234.057C136.693 234.057 136.665 234.057 136.651 234.057Z" fill="#0E2549"/>
<path d="M137.115 238.831C136.903 238.831 136.718 238.668 136.698 238.453C136.676 238.223 136.844 238.016 137.076 237.994L144.029 237.316C144.258 237.291 144.465 237.462 144.488 237.694C144.51 237.924 144.342 238.131 144.11 238.153L137.157 238.831C137.157 238.831 137.129 238.831 137.115 238.831Z" fill="#0E2549"/>
<path d="M138.499 249.389C138.286 249.389 138.101 249.227 138.081 249.012C138.059 248.782 138.227 248.575 138.459 248.552L153.061 247.127C153.291 247.105 153.498 247.273 153.521 247.505C153.543 247.735 153.375 247.942 153.143 247.964L138.541 249.389C138.541 249.389 138.513 249.389 138.499 249.389Z" fill="#0E2549"/>
<path d="M138.963 254.164C138.75 254.164 138.568 254.001 138.546 253.785C138.524 253.556 138.692 253.349 138.924 253.326L145.876 252.649C146.109 252.626 146.313 252.794 146.336 253.027C146.358 253.256 146.19 253.463 145.958 253.486L139.005 254.164C139.005 254.164 138.977 254.164 138.963 254.164Z" fill="#0E2549"/>
<path d="M130.059 239.058L126.064 235.496C125.89 235.342 125.876 235.076 126.03 234.902C126.184 234.729 126.45 234.715 126.624 234.869L130.009 237.884L136.466 230.974C136.625 230.806 136.891 230.795 137.059 230.954C137.23 231.114 137.239 231.377 137.079 231.548L130.062 239.058H130.059Z" fill="#0E2549"/>
<path d="M124.644 254.757C122.385 255.032 120.391 257.285 120.391 257.285L119.881 252.229C119.881 252.229 122.093 251.87 122.39 251.072C122.687 250.274 126.207 245.436 126.305 246.928C126.375 247.976 124.849 250.641 124.787 251.246C124.77 251.397 124.644 254.757 124.644 254.757Z" fill="#F8F8F8"/>
<path d="M120.072 258.282L119.425 251.879L119.814 251.814C120.747 251.663 121.872 251.26 121.998 250.927C122.205 250.367 125.05 246.058 126.195 246.231C126.31 246.248 126.688 246.346 126.724 246.9C126.775 247.651 126.212 248.908 125.716 250.017C125.495 250.51 125.224 251.123 125.207 251.288C125.196 251.428 125.115 253.45 125.064 254.774L125.05 255.132L124.695 255.174C122.617 255.426 120.724 257.543 120.705 257.563L120.069 258.282H120.072ZM120.341 252.57L120.724 256.367C121.466 255.695 122.768 254.698 124.241 254.399C124.28 253.38 124.358 251.338 124.372 251.204C124.4 250.918 124.602 250.459 124.952 249.675C125.285 248.928 125.767 247.85 125.871 247.22C125.011 247.908 123.023 250.582 122.788 251.221C122.494 252.013 121.125 252.408 120.341 252.573V252.57Z" fill="#0E2549"/>
<path d="M117.283 251.845L118.179 260.365L121.259 258.523L120.383 251.47L117.283 251.845Z" fill="#176B87"/>
<path d="M831.868 183.017H715.277V355.975H831.868V183.017Z" fill="#F8F8F8"/>
<path d="M832.289 356.395H714.857V182.597H832.289V356.395ZM715.697 355.555H831.449V183.437H715.697V355.555Z" fill="#0E2549"/>
<path d="M750.624 222.244C755.978 220.027 758.52 213.889 756.302 208.536C754.085 203.183 747.948 200.641 742.594 202.858C737.241 205.075 734.699 211.213 736.916 216.566C739.134 221.919 745.271 224.461 750.624 222.244Z" fill="#A1C5E2"/>
<path d="M744.957 215.016L736.557 206.005C736.4 205.835 736.409 205.571 736.579 205.412C736.75 205.255 737.016 205.263 737.173 205.434L745.033 213.868L760.833 200.842C761.012 200.694 761.275 200.719 761.424 200.898C761.572 201.077 761.547 201.341 761.368 201.489L744.957 215.018V215.016Z" fill="#0E2549"/>
<path d="M746.609 277.346C740.592 277.346 735.697 272.452 735.697 266.435C735.697 260.417 740.592 255.523 746.609 255.523C752.626 255.523 757.52 260.417 757.52 266.435C757.52 272.452 752.626 277.346 746.609 277.346ZM746.609 256.36C741.054 256.36 736.537 260.879 736.537 266.432C736.537 271.984 741.056 276.503 746.609 276.503C752.161 276.503 756.68 271.984 756.68 266.432C756.68 260.879 752.161 256.36 746.609 256.36Z" fill="#0E2549"/>
<path d="M746.609 331.226C740.592 331.226 735.697 326.332 735.697 320.315C735.697 314.298 740.592 309.403 746.609 309.403C752.626 309.403 757.52 314.298 757.52 320.315C757.52 326.332 752.626 331.226 746.609 331.226ZM746.609 310.24C741.054 310.24 736.537 314.76 736.537 320.312C736.537 325.864 741.056 330.384 746.609 330.384C752.161 330.384 756.68 325.864 756.68 320.312C756.68 314.76 752.161 310.24 746.609 310.24Z" fill="#0E2549"/>
<path d="M822.091 204.871H765.811C765.579 204.871 765.391 204.684 765.391 204.451C765.391 204.219 765.579 204.031 765.811 204.031H822.091C822.323 204.031 822.511 204.219 822.511 204.451C822.511 204.684 822.323 204.871 822.091 204.871Z" fill="#0E2549"/>
<path d="M782.67 216.53H766.721C766.488 216.53 766.301 216.343 766.301 216.11C766.301 215.878 766.488 215.69 766.721 215.69H782.67C782.902 215.69 783.09 215.878 783.09 216.11C783.09 216.343 782.902 216.53 782.67 216.53Z" fill="#0E2549"/>
<path d="M815.981 355.236L813.291 345.691H815.508C815.741 345.691 815.928 345.503 815.928 345.271C815.928 345.039 815.741 344.851 815.508 344.851H813.055L809.121 330.896H811.107C811.339 330.896 811.527 330.708 811.527 330.476C811.527 330.243 811.339 330.056 811.107 330.056H808.883L804.95 316.104H807.705C807.937 316.104 808.125 315.916 808.125 315.684C808.125 315.451 807.937 315.264 807.705 315.264H804.711L800.778 301.308H803.3C803.533 301.308 803.72 301.121 803.72 300.888C803.72 300.656 803.533 300.468 803.3 300.468H800.54L796.606 286.513H800.019C800.251 286.513 800.439 286.326 800.439 286.093C800.439 285.861 800.251 285.673 800.019 285.673H796.37L792.439 271.721H796.11C796.342 271.721 796.53 271.533 796.53 271.301C796.53 271.069 796.342 270.881 796.11 270.881H792.201L788.71 258.497C788.648 258.273 788.416 258.144 788.192 258.205C787.968 258.267 787.839 258.499 787.9 258.723L791.328 270.881H768.835L765.344 258.497L764.991 257.242L729.361 355.205C729.283 355.424 729.395 355.665 729.613 355.743C729.831 355.824 730.072 355.709 730.151 355.491L764.89 259.978L767.962 270.881H766.122C765.89 270.881 765.702 271.069 765.702 271.301C765.702 271.533 765.89 271.721 766.122 271.721H768.197L772.131 285.673H770.034C769.801 285.673 769.614 285.861 769.614 286.093C769.614 286.326 769.801 286.513 770.034 286.513H772.369L776.3 300.468H773.312C773.08 300.468 772.892 300.656 772.892 300.888C772.892 301.121 773.08 301.308 773.312 301.308H776.538L780.472 315.264H777.717C777.484 315.264 777.297 315.451 777.297 315.684C777.297 315.916 777.484 316.104 777.717 316.104H780.71L784.641 330.056H781.116C780.884 330.056 780.696 330.243 780.696 330.476C780.696 330.708 780.884 330.896 781.116 330.896H784.876L788.81 344.851H785.518C785.285 344.851 785.098 345.039 785.098 345.271C785.098 345.503 785.285 345.691 785.518 345.691H789.048L791.804 355.463C791.857 355.648 792.025 355.768 792.207 355.768C792.243 355.768 792.282 355.763 792.322 355.751C792.546 355.69 792.674 355.457 792.613 355.233L789.922 345.688H812.414L815.169 355.46C815.223 355.645 815.391 355.765 815.573 355.765C815.609 355.765 815.648 355.76 815.687 355.749C815.911 355.687 816.04 355.455 815.979 355.231L815.981 355.236ZM769.079 271.721H791.571L795.502 285.673H773.01L769.079 271.721ZM773.248 286.513H795.74L799.674 300.468H777.182L773.248 286.513ZM777.417 301.308H799.91L803.841 315.264H781.348L777.417 301.308ZM781.586 316.104H804.079L808.013 330.056H785.52L781.586 316.104ZM789.69 344.851L785.756 330.896H808.248L812.182 344.851H789.69Z" fill="#0E2549"/>
<path d="M815.578 225.549C815.049 223.001 814.749 215.498 808.78 213.42C812.946 209.69 805.215 206.44 803.267 208.461C801.486 210.309 802.855 212.163 803.353 212.723C801.965 212.866 800.892 212.748 798.918 214.602C795.096 218.191 797.263 224.197 797.406 226.644C797.549 229.091 798.61 240.555 798.61 240.555L818.02 244.735C818.02 244.735 818.339 238.869 815.581 225.547L815.578 225.549Z" fill="#0E2549"/>
<path d="M802.978 212.289L803.006 212.854C803.006 212.854 807.542 213.593 808.976 213.633L809.11 213.056C809.11 213.056 803.849 212.577 802.981 212.291L802.978 212.289Z" fill="#A1C5E2"/>
<path d="M804.944 317.865L804.524 327.211L809.603 326.758L809.951 317.389L804.944 317.865Z" fill="#F8F8F8"/>
<path d="M804.085 327.671L804.541 317.481L810.387 316.927L810.009 327.141L804.085 327.671ZM805.347 318.249L804.967 326.749L809.197 326.371L809.514 317.854L805.347 318.249Z" fill="#0E2549"/>
<path d="M804.258 325.134C804.258 325.134 796.547 323.947 796.337 327.276C796.127 330.602 796.337 330.389 796.337 330.389L809.648 330.381L809.85 326.472C809.85 326.472 804.981 327.304 804.261 325.134H804.258Z" fill="#176B87"/>
<path d="M781.083 288.278L780.663 297.624L785.742 297.17L786.089 287.801L781.083 288.278Z" fill="#F8F8F8"/>
<path d="M780.223 298.083L780.679 287.894L786.525 287.34L786.147 297.557L780.223 298.086V298.083ZM781.486 288.661L781.105 297.162L785.335 296.784L785.652 288.266L781.486 288.661Z" fill="#0E2549"/>
<path d="M780.396 295.544C780.396 295.544 772.685 294.356 772.475 297.686C772.265 301.012 772.475 300.802 772.475 300.802L785.786 300.794L785.988 296.885C785.988 296.885 781.119 297.716 780.399 295.546L780.396 295.544Z" fill="#176B87"/>
<path d="M786.008 300.119H772.179V300.886H786.008V300.119Z" fill="#0E2549"/>
<path d="M802.287 269.632L803.592 320.147L811.152 320.934C811.152 320.934 813.957 282.398 816.976 275.428C820.616 267.02 815.819 257.637 815.819 257.637L801.422 259.146C801.422 259.146 801.399 260.121 801.005 260.742C800.489 261.554 790.421 264.696 781.354 272.724C779.655 274.227 780.007 283.478 780.007 290.91L787.052 291.078L788.713 279.029L802.404 274.21L802.287 269.627V269.632Z" fill="#176B87"/>
<path d="M807.442 232.292C810.082 232.947 820.798 235.923 816.385 254.504L815.732 255.28L815.979 257.637L802.074 261.664L801.548 259.343C801.548 259.343 800.542 259.079 799.022 257.08C797.505 255.081 797.16 250.069 797.16 250.069L797.236 238.665C797.236 238.665 798.583 235.489 799.453 234.711C801.618 232.779 804.619 231.597 807.436 232.297L807.442 232.292Z" fill="#2E6B99"/>
<path d="M809.869 329.706H796.04V330.473H809.869V329.706Z" fill="#0E2549"/>
<path d="M775.729 244.203C775.729 244.203 771.263 242.571 771.33 243.268C771.397 243.965 775.541 245.121 775.521 245.214C775.491 245.379 773.248 244.833 773.108 245.317C772.917 245.984 776.188 245.936 778.011 245.998C779.833 246.059 783.165 247.039 783.165 247.039L781.886 244.962C781.886 244.962 779.772 243.985 779.481 243.369C779.187 242.753 777.554 239.216 777.58 240.415C777.599 241.255 777.753 242.184 777.845 242.666C777.868 242.786 777.459 242.809 777.358 242.741C776.359 242.069 773.262 239.927 773.206 240.655C773.142 241.512 776.3 243.142 776.244 243.206C776.062 243.427 772.744 241.07 771.786 241.403C770.414 241.882 775.804 244.239 775.804 244.239L775.726 244.206L775.729 244.203Z" fill="#F8F8F8"/>
<path d="M784.098 247.751L783.048 247.443C783.015 247.431 779.744 246.477 777.997 246.418C777.723 246.409 777.417 246.401 777.095 246.395C774.365 246.337 773.167 246.23 772.8 245.732C772.685 245.575 772.652 245.387 772.705 245.203C772.767 244.99 772.909 244.861 773.108 244.783C771.504 244.169 770.955 243.777 770.91 243.31C770.891 243.119 770.969 242.943 771.12 242.825C771.201 242.761 771.364 242.638 772.011 242.708C771.423 242.277 771.134 241.91 771.145 241.605C771.151 241.476 771.21 241.157 771.652 241.005C771.971 240.893 772.403 240.961 772.921 241.148C772.823 240.969 772.781 240.795 772.792 240.622C772.809 240.409 772.923 240.238 773.108 240.149C773.556 239.933 774.335 240.193 777.347 242.223C777.266 241.714 777.179 241.047 777.165 240.423C777.154 239.93 777.406 239.796 777.557 239.759C777.963 239.661 778.252 239.768 779.797 243.049L779.862 243.187C779.999 243.472 781.111 244.139 782.065 244.578L782.18 244.631L784.098 247.751ZM775.833 245.519C776.3 245.536 776.754 245.547 777.115 245.555C777.44 245.564 777.751 245.569 778.025 245.578C779.254 245.62 781.102 246.051 782.25 246.351L781.595 245.287C780.965 244.99 779.411 244.203 779.1 243.548L779.033 243.408C778.619 242.531 778.311 241.918 778.084 241.493C778.14 241.932 778.207 242.327 778.257 242.585C778.294 242.775 778.213 242.963 778.045 243.075C777.807 243.231 777.35 243.24 777.123 243.089L776.899 242.937C775.365 241.901 774.477 241.375 773.968 241.126C774.287 241.417 774.892 241.862 776.006 242.543C776.541 242.867 776.622 242.918 776.659 243.131L776.689 243.318L776.566 243.469C776.275 243.822 775.928 243.632 774.777 242.996C774.153 242.652 772.809 241.91 772.173 241.795C772.75 242.282 774.385 243.15 775.875 243.811C775.886 243.817 775.897 243.819 775.908 243.825C775.928 243.833 775.947 243.842 775.967 243.85C776.18 243.943 776.275 244.192 776.183 244.405C776.09 244.617 775.841 244.715 775.628 244.62C775.603 244.609 775.581 244.598 775.555 244.589C774.542 244.22 773.394 243.861 772.579 243.663C773.352 244.004 774.419 244.368 774.881 244.525C775.802 244.839 775.992 244.906 775.925 245.287C775.908 245.385 775.875 245.46 775.824 245.516L775.833 245.519Z" fill="#0E2549"/>
<path d="M812.263 243.408C812.263 243.408 811.594 251.111 805.834 258.351C803.135 261.745 797.683 265.749 793.052 269.663L789.566 266.152L800.822 255.159L803.67 240.868L812.263 243.408Z" fill="#2E6B99"/>
<path d="M800.643 236.251C800.643 236.251 799.319 234.537 798.129 237.01C796.684 240.006 792.969 245.102 792.064 245.558C791.16 246.012 780.103 243.29 780.103 243.29L778.341 247.916C778.341 247.916 785.871 250.648 790.742 252.709C795.614 254.77 801.861 245.838 801.861 245.838L800.64 236.248L800.643 236.251Z" fill="#2E6B99"/>
<path d="M799.425 256.906C799.313 256.906 799.204 256.862 799.12 256.775C798.96 256.607 798.966 256.341 799.137 256.181L800.439 254.947L803.18 241.196C803.225 240.969 803.449 240.821 803.673 240.865C803.9 240.91 804.048 241.131 804.003 241.358L801.212 255.372L799.716 256.792C799.635 256.87 799.532 256.906 799.428 256.906H799.425Z" fill="#0E2549"/>
<path d="M793.052 270.083C792.932 270.083 792.815 270.033 792.731 269.935C792.579 269.758 792.602 269.492 792.781 269.344L804.992 259.029C805.865 257.889 809.147 248.616 811.157 242.607C811.23 242.386 811.468 242.268 811.689 242.341C811.91 242.414 812.028 242.652 811.955 242.873C811.434 244.43 806.828 258.13 805.619 259.592L805.566 259.645L793.321 269.985C793.243 270.052 793.148 270.083 793.05 270.083H793.052Z" fill="#0E2549"/>
<path d="M797.404 252.524C797.225 252.524 797.057 252.407 797.001 252.228C795.491 247.261 796.611 239.913 796.662 239.603C796.698 239.373 796.911 239.219 797.141 239.253C797.37 239.289 797.527 239.502 797.491 239.731C797.479 239.804 796.351 247.202 797.804 251.981C797.871 252.203 797.745 252.438 797.524 252.505C797.485 252.516 797.443 252.522 797.401 252.522L797.404 252.524Z" fill="#0E2549"/>
<path d="M808.069 232.888C808.425 232.538 807.436 225.549 807.436 225.549L801.279 226.765C801.279 226.765 801.206 233.51 800.991 234.599C800.991 234.599 804.978 235.929 808.069 232.888Z" fill="#F8F8F8"/>
<path d="M803.113 235.316C801.841 235.316 800.937 235.025 800.859 234.997L800.509 234.879L800.579 234.518C800.749 233.655 800.839 228.624 800.859 226.759V226.417L807.789 225.051L807.85 225.491C808.869 232.689 808.525 233.025 808.363 233.188C806.613 234.91 804.608 235.316 803.113 235.316ZM801.455 234.291C802.427 234.521 805.325 234.941 807.713 232.65C807.811 232.059 807.483 228.957 807.083 226.048L801.696 227.112C801.679 228.38 801.612 232.743 801.458 234.291H801.455Z" fill="#0E2549"/>
<path d="M807.456 227.333C808.433 226.801 810.163 225.703 810.315 224.497C810.463 223.29 809.071 223.309 808.632 223.466C808.341 223.57 809.343 216.799 809.343 216.799L800.055 215.282C800.055 215.282 797.989 221.302 798.031 224.673C798.073 228.058 799.537 229.063 801.971 229.385C803.175 229.545 804.149 229.366 804.936 229.049L807.459 227.336L807.456 227.333Z" fill="#F8F8F8"/>
<path d="M802.838 229.864C802.536 229.864 802.225 229.842 801.912 229.803C798.896 229.402 797.65 227.918 797.608 224.679C797.566 221.274 799.571 215.394 799.655 215.145L799.77 214.809L809.816 216.449L809.754 216.858C809.393 219.3 809.052 221.988 809.001 222.976C809.402 222.951 809.911 223.015 810.286 223.318C810.533 223.517 810.81 223.892 810.729 224.547C810.566 225.86 808.968 226.989 807.654 227.703C807.453 227.815 807.195 227.739 807.086 227.535C806.974 227.33 807.05 227.075 807.254 226.966C808.842 226.101 809.805 225.183 809.897 224.446C809.934 224.149 809.838 224.035 809.763 223.973C809.505 223.766 808.973 223.791 808.772 223.861L808.548 223.939L808.346 223.785C808.139 223.615 807.94 223.452 808.864 217.144L800.338 215.752C799.912 217.057 798.412 221.853 798.448 224.665C798.487 227.857 799.845 228.677 802.021 228.965C803.012 229.097 803.939 228.993 804.773 228.655C804.989 228.568 805.232 228.671 805.319 228.887C805.406 229.103 805.302 229.346 805.087 229.433C804.384 229.716 803.631 229.859 802.836 229.859L802.838 229.864Z" fill="#0E2549"/>
<path d="M799.949 222.447C799.918 222.447 799.887 222.444 799.856 222.436C799.629 222.385 799.487 222.161 799.537 221.935L799.604 221.635C799.655 221.408 799.879 221.265 800.106 221.316C800.332 221.366 800.475 221.59 800.425 221.817L800.358 222.117C800.313 222.313 800.139 222.444 799.949 222.444V222.447Z" fill="#0E2549"/>
<path d="M803.936 223.293C803.905 223.293 803.875 223.29 803.844 223.281C803.617 223.231 803.474 223.007 803.525 222.78L803.592 222.478C803.642 222.251 803.866 222.108 804.093 222.159C804.32 222.209 804.463 222.433 804.412 222.66L804.345 222.962C804.3 223.158 804.127 223.293 803.936 223.293Z" fill="#0E2549"/>
<path d="M806.193 222.131C806.112 222.131 806.028 222.108 805.958 222.058C805.367 221.655 804.297 221.481 803.933 221.45C803.701 221.431 803.53 221.226 803.553 220.994C803.572 220.761 803.779 220.593 804.009 220.613C804.071 220.619 805.541 220.753 806.434 221.363C806.624 221.495 806.675 221.755 806.543 221.946C806.462 222.066 806.33 222.128 806.196 222.128L806.193 222.131Z" fill="#0E2549"/>
<path d="M801.57 224.735C801.536 224.735 801.5 224.729 801.463 224.721C800.035 224.348 800.002 223.979 799.985 223.799C799.957 223.505 800.145 223.323 800.327 223.147C800.556 222.926 800.901 222.59 801.242 221.803C801.399 221.439 801.419 221.17 801.301 221.005C801.046 220.649 800.161 220.602 799.772 220.635C799.545 220.658 799.338 220.484 799.319 220.255C799.299 220.025 799.47 219.821 799.699 219.801C799.87 219.787 801.379 219.678 801.984 220.515C802.289 220.941 802.301 221.487 802.015 222.142C801.645 222.993 801.239 223.433 800.987 223.682C801.172 223.76 801.435 223.847 801.679 223.911C801.903 223.97 802.037 224.2 801.979 224.424C801.928 224.611 801.757 224.737 801.573 224.737L801.57 224.735Z" fill="#0E2549"/>
<path d="M802.964 278.396C802.964 278.396 802.942 278.396 802.931 278.396C802.698 278.402 802.505 278.22 802.5 277.988L802.295 269.879C802.29 269.646 802.474 269.453 802.704 269.448C802.936 269.442 803.13 269.624 803.135 269.856L803.34 277.965C803.345 278.186 803.18 278.371 802.964 278.394V278.396Z" fill="#0E2549"/>
<path d="M798.154 216.839C798.154 216.839 808.139 218.964 808.438 223.531C808.438 223.531 809.513 223.139 809.866 223.287C810.317 223.48 810.432 223.696 810.432 223.696L812.067 216.724L800.119 214.859L798.157 216.839H798.154Z" fill="#0E2549"/>
<path d="M802.435 225.661C802.539 225.899 801.517 226.577 800.856 226.448C799.201 226.126 799.056 224.617 799.369 224.914C799.487 225.026 800.206 225.636 801.044 225.723C802.116 225.835 802.317 225.393 802.432 225.661H802.435Z" fill="#0E2549"/>
<path d="M790.081 310.694L753.55 228.918C753.505 228.82 753.55 228.705 753.648 228.663L767.995 222.254C768.093 222.209 768.208 222.254 768.25 222.352L804.781 304.128L790.078 310.697L790.081 310.694Z" fill="#D2EBFC"/>
<path d="M753.992 212.392L753.832 219.19L753.611 228.702C753.608 228.848 753.757 228.946 753.888 228.887L768.023 222.573C768.154 222.514 768.18 222.338 768.07 222.242L755.669 211.645C755.02 211.09 754.014 211.538 753.995 212.392H753.992Z" fill="#F8F8F8"/>
<path d="M768.633 222.178C768.558 222.007 755.938 211.325 755.938 211.325C755.513 210.961 754.93 210.877 754.421 211.107C753.911 211.334 753.584 211.824 753.572 212.384C753.572 212.384 753.082 228.904 753.164 229.088L789.695 310.865L789.866 311.248L805.336 304.338L768.633 222.178ZM754.256 219.104C755.034 218.625 759.184 216.676 760.298 216.155L767.273 222.114L754.048 228.022L754.258 219.104H754.256ZM787.281 303.4L754.146 229.231L758.12 227.456L791.123 301.611C791.123 301.611 791.123 301.614 791.126 301.616L787.281 303.4ZM791.887 301.264L758.887 227.112L763.048 225.252L796.023 299.346L791.887 301.264ZM763.815 224.911L768.082 223.004L801.127 296.98L796.785 298.993L763.815 224.911Z" fill="#0E2549"/>
<path d="M791.145 270.077C791.98 268.49 794.539 267.443 794.539 267.443L791.053 265.547C791.053 265.547 790.087 267.123 789.409 267.093C788.732 267.062 784.784 267.073 785.828 267.597C786.562 267.963 787.441 268.252 787.9 268.392C788.015 268.425 788.023 268.579 787.917 268.633C786.842 269.176 782.927 272.343 783.669 272.984C785.072 274.191 789.303 273.58 791.142 270.077H791.145Z" fill="#F8F8F8"/>
<path d="M785.59 273.969C784.689 273.969 783.91 273.737 783.401 273.3C783.219 273.143 783.138 272.917 783.168 272.659C783.297 271.592 785.876 269.475 787.181 268.596C786.719 268.437 786.153 268.221 785.646 267.969C785.196 267.745 785.221 267.434 785.254 267.311C785.35 266.95 785.672 266.773 787.329 266.695C788.222 266.653 789.141 266.659 789.432 266.673H789.438C789.662 266.673 790.269 266.023 790.698 265.329L790.908 264.99L795.519 267.499L794.701 267.835C794.676 267.846 792.274 268.843 791.521 270.276C790.544 272.135 788.743 273.477 786.702 273.866C786.318 273.939 785.946 273.975 785.59 273.975V273.969ZM784.008 272.712C784.529 273.107 785.509 273.233 786.545 273.037C788.337 272.695 789.919 271.517 790.776 269.881C791.378 268.736 792.75 267.874 793.618 267.417L791.196 266.101C790.807 266.664 790.093 267.549 789.393 267.51C788.864 267.485 787.66 267.501 786.811 267.566C787.287 267.753 787.741 267.899 788.026 267.989C788.242 268.056 788.393 268.241 788.413 268.465C788.432 268.691 788.312 268.904 788.108 269.005C787.041 269.545 784.165 271.99 784.006 272.712H784.008Z" fill="#0E2549"/>
<path d="M794.234 262.092L789.566 266.149L792.811 269.417L797.963 264.872L794.234 262.092Z" fill="#2E6B99"/>
<path d="M627.634 57.9374L651.862 0.181961L714.43 26.4291L697.908 65.8151L653.709 47.2739L627.634 57.9374ZM652.502 1.74773L629.853 55.7381L653.716 45.9796L697.268 64.2494L712.864 27.0694L652.502 1.74773Z" fill="#0E2549"/>
<path d="M700.014 32.4583L681.737 24.791C681.432 24.663 681.289 24.3133 681.417 24.0082C681.545 23.703 681.895 23.56 682.2 23.688L700.477 31.3553C700.782 31.4833 700.925 31.833 700.797 32.1382C700.669 32.4433 700.32 32.5863 700.014 32.4583Z" fill="#0E2549"/>
<path d="M696.453 40.9481L678.176 33.2808C677.871 33.1528 677.728 32.8031 677.856 32.498C677.984 32.1928 678.334 32.0498 678.639 32.1778L696.916 39.8451C697.221 39.9731 697.364 40.3228 697.236 40.628C697.108 40.9332 696.759 41.0762 696.453 40.9481Z" fill="#0E2549"/>
<path d="M693.248 49.5913L674.97 41.924C674.665 41.796 674.522 41.4463 674.65 41.1412C674.778 40.836 675.128 40.693 675.433 40.821L693.71 48.4883C694.016 48.6163 694.159 48.966 694.031 49.2712C693.903 49.5764 693.553 49.7194 693.248 49.5913Z" fill="#0E2549"/>
<path d="M657.234 36.7582C651.182 34.2194 648.32 27.2293 650.861 21.1736C653.401 15.1179 660.39 12.2599 666.445 14.8002C672.501 17.3406 675.359 24.3291 672.819 30.3849C670.278 36.4406 663.29 39.2985 657.234 36.7582ZM665.981 15.907C660.536 13.6227 654.246 16.1946 651.962 21.64C649.678 27.0854 652.25 33.3745 657.695 35.6588C663.141 37.9431 669.43 35.3712 671.714 29.9258C673.998 24.4804 671.426 18.1913 665.981 15.907Z" fill="#0E2549"/>
<path d="M664.159 32.5766C664.019 32.518 663.899 32.4027 663.837 32.2513L659.007 20.4402C658.881 20.1323 659.028 19.783 659.334 19.6608C659.642 19.5348 659.991 19.6814 660.113 19.9877L664.944 31.7988C665.07 32.1068 664.923 32.4561 664.617 32.5783C664.465 32.6402 664.299 32.6352 664.159 32.5766Z" fill="#0E2549"/>
<path d="M655.542 28.8147C655.402 28.7561 655.282 28.6408 655.22 28.4895C655.094 28.1815 655.241 27.8322 655.547 27.71L667.416 22.8563C667.724 22.7304 668.073 22.8769 668.195 23.1833C668.321 23.4913 668.174 23.8405 667.868 23.9628L656 28.8165C655.848 28.8784 655.682 28.8733 655.542 28.8147Z" fill="#0E2549"/>
</svg>
