<svg xmlns="http://www.w3.org/2000/svg" xmlns:xlink="http://www.w3.org/1999/xlink" version="1.1" id="a" x="0px" y="0px" viewBox="0 0 730.5 268.5" style="enable-background:new 0 0 730.5 268.5;" xml:space="preserve" width="730.5"  height="268.5" >
<style type="text/css">
	.st0{fill:#43BDD8;}
	.st1{enable-background:new    ;}
	.st2{fill:#2F3053;}
</style>
<g>
	<path class="st0" d="M72.2,153L72.2,153c4.2,0,7.6,3.4,7.6,7.7l0,0c0,4.2-3.4,7.7-7.7,7.7l0,0c-7.6,0-13.9,6.2-13.9,13.9v2.4   c0,23.3,17.4,43.5,40.6,45.7c26.6,2.4,49-18.5,49-44.6v-58.7c0-4.2,3.4-7.7,7.7-7.7l0,0c4.2,0,7.7,3.4,7.7,7.7v57.5   c0,31.6-24,58.8-55.5,61.2c-35.2,2.7-64.8-25.3-64.8-60v-3.6C43,166.1,56.1,153,72.2,153L72.2,153z"/>
	<path class="st0" d="M120.6,97.9L120.6,97.9c4.2,0,7.7,3.4,7.7,7.7v27.9c0,4.2-3.4,7.7-7.7,7.7l0,0c-4.2,0-7.7-3.4-7.7-7.7v-27.9   C112.9,101.3,116.3,97.9,120.6,97.9z"/>
	<path class="st0" d="M85.6,66.8L85.6,66.8c4.2,0,7.7,3.4,7.7,7.7v59.1c0,4.2-3.4,7.7-7.7,7.7l0,0c-4.2,0-7.7-3.4-7.7-7.7V74.5   C77.9,70.2,81.3,66.8,85.6,66.8L85.6,66.8z"/>
	<path class="st0" d="M50.6,41.4L50.6,41.4c4.2,0,7.7,3.4,7.7,7.7v84.4c0,4.2-3.4,7.7-7.7,7.7l0,0c-4.2,0-7.7-3.4-7.7-7.7V49.1   C42.9,44.8,46.3,41.4,50.6,41.4z"/>
</g>
<g class="st1">
	<path class="st2" d="M238.1,121.6h12.5v10.7c3-3.7,5.8-6.4,8.2-8.1c4.2-2.8,8.9-4.3,14.2-4.2c6,0,10.8,1.5,14.5,4.5   c2.1,1.7,3.9,4.2,5.6,7.5c2.8-4,6.2-7,10-8.9c3.8-1.9,8.1-2.9,12.8-2.9c10.1,0,17,3.7,20.7,11.1c2,4,2.9,9.3,2.9,15.9l-0.2,50.2   h-13.2l0.2-52.4c0-5-1.2-8.5-3.7-10.4s-5.6-2.8-9.2-2.9c-5,0-9.3,1.6-12.9,5c-3.6,3.3-5.4,8.9-5.4,16.7l-0.2,43.9H282l0.2-49.2   c0-5.1-0.6-8.9-1.8-11.2c-1.9-3.5-5.5-5.3-10.8-5.3c-4.8,0-9.2,1.8-13.1,5.5c-3.9,3.7-5.9,10.4-6,20.1l-0.1,40h-12.7L238.1,121.6z"/>
	<path class="st2" d="M404.8,124.3c5,2.5,8.8,5.8,11.4,9.8c2.5,3.8,4.2,8.3,5,13.3c0.7,3.5,1.1,9,1.1,16.6l-54.9-0.2   c0.2,7.7,2,13.8,5.3,18.5c3.3,4.6,8.5,7,15.6,7c6.6,0,11.8-2.1,15.7-6.5c2.2-2.5,3.8-5.5,4.7-8.8h12.5c-0.3,2.8-1.4,5.9-3.3,9.2   c-1.9,3.4-3.9,6.2-6.2,8.3c-3.8,3.7-8.6,6.3-14.2,7.6c-3,0.7-6.5,1.1-10.3,1.1c-9.3,0-17.2-3.5-23.7-10.3   c-6.5-6.9-9.7-16.4-9.6-28.7c0-12.1,3.3-21.9,9.9-29.5c6.6-7.5,15.1-11.3,25.7-11.2C394.7,120.5,399.8,121.8,404.8,124.3z    M409.2,153.9c-0.5-5.5-1.7-9.9-3.5-13.2c-3.4-6.1-9.2-9.2-17.2-9.2c-5.8,0-10.6,2.1-14.5,6.2c-3.9,4.2-6,9.5-6.3,16L409.2,153.9z"/>
	<path class="st2" d="M438.8,122.3h12v13c1-2.5,3.4-5.6,7.3-9.2c3.9-3.6,8.3-5.4,13.3-5.4c0.2,0,0.6,0,1.2,0.1   c0.6,0,1.5,0.1,2.9,0.3v13.4c-0.8-0.1-1.4-0.2-2.1-0.3c-0.6,0-1.3-0.1-2.1-0.1c-6.4,0-11.3,2-14.7,6.1s-5.2,8.8-5.2,14.2l-0.2,43.4   h-12.7L438.8,122.3z"/>
	<path class="st2" d="M526.8,152.4c2.9-0.4,4.9-1.6,5.9-3.6c0.6-1.1,0.9-2.8,0.9-4.9c0-4.3-1.5-7.5-4.6-9.5s-7.5-3-13.2-3   c-6.6,0-11.3,1.8-14.1,5.3c-1.6,2-2.6,4.9-3.1,8.8h-11.8c0.3-9.3,3.3-15.8,9.1-19.4c5.8-3.6,12.5-5.4,20.2-5.4   c8.9,0,16.1,1.8,21.6,5.1c5.5,3.4,8.2,8.7,8.2,15.8l-0.2,43.5c0,1.3,0.3,2.4,0.8,3.2s1.7,1.2,3.4,1.2c0.6,0,1.2,0,1.9-0.1   s1.5-0.2,2.3-0.3v9.4c-2,0.6-3.5,0.9-4.5,1s-2.4,0.2-4.2,0.2c-4.4,0-7.5-1.6-9.5-4.7c-1-1.6-1.7-4-2.2-7c-2.6,3.4-6.3,6.3-11.2,8.8   c-4.8,2.5-10.2,3.7-16,3.7c-7,0-12.7-2.2-17.1-6.4c-4.4-4.3-6.6-9.6-6.6-16c0-7,2.2-12.4,6.6-16.2c4.4-3.8,10.1-6.2,17.2-7   L526.8,152.4z M499.9,186.6c2.7,2.1,5.8,3.2,9.5,3.2c4.5,0,8.8-1,13-3c7.1-3.4,10.6-9,10.6-16.8v-10.2c-1.6,1-3.5,1.8-6,2.5   c-2.4,0.7-4.8,1.1-7.2,1.4l-7.7,1c-4.6,0.6-8.1,1.5-10.4,2.8c-3.9,2.2-5.9,5.7-5.9,10.5C496,181.6,497.3,184.5,499.9,186.6z"/>
</g>
<g class="st1">
	<path class="st0" d="M583.2,94.8l14.2,0.1L597,198.4l-14.2-0.1L583.2,94.8z"/>
	<path class="st0" d="M620.7,95l41.3,0.2c14,0.1,24.9,5.1,32.6,15.3c6.9,9.1,10.3,20.8,10.2,35c0,11-2.1,20.9-6.2,29.8   c-7.2,15.7-19.6,23.4-37.1,23.4l-41.2-0.2L620.7,95z M659,186.6c4.6,0,8.4-0.5,11.4-1.4c5.3-1.8,9.7-5.3,13.1-10.5   c2.7-4.2,4.7-9.5,5.9-16c0.7-3.9,1.1-7.5,1.1-10.8c0-12.8-2.4-22.8-7.4-29.9c-5-7.1-13-10.7-24-10.7l-24.3-0.1l-0.3,79.4H659z"/>
</g>
</svg>